<svg width="390" height="104" viewBox="0 0 390 104" fill="none" xmlns="http://www.w3.org/2000/svg">
<circle cx="52" cy="52" r="52" fill="#009EE8"/>
<path d="M72.8 31H31.2C28.34 31 26.026 33.34 26.026 36.2L26 67.4C26 70.26 28.34 72.6 31.2 72.6H72.8C75.66 72.6 78 70.26 78 67.4V36.2C78 33.34 75.66 31 72.8 31ZM72.8 41.4L52 54.4L31.2 41.4V36.2L52 49.2L72.8 36.2V41.4Z" fill="white"/>
<path d="M135.558 35V19.252H140.316L143.174 29.9941L145.999 19.252H150.769V35H147.814V22.6035L144.688 35H141.627L138.512 22.6035V35H135.558ZM168.128 35H164.669L163.294 31.4229H156.999L155.699 35H152.326L158.46 19.252H161.822L168.128 35ZM162.273 28.7695L160.104 22.9258L157.977 28.7695H162.273ZM169.729 35V19.252H172.908V35H169.729ZM176.034 35V19.3809H179.214V32.3467H187.12V35H176.034ZM189.301 35V19.252H192.48V35H189.301ZM195.553 35V19.252H198.646L205.092 29.7686V19.252H208.046V35H204.855L198.507 24.7305V35H195.553ZM218.745 29.21V26.5566H225.599V32.8301C224.933 33.4746 223.966 34.0439 222.698 34.5381C221.438 35.0251 220.16 35.2686 218.863 35.2686C217.216 35.2686 215.78 34.9248 214.556 34.2373C213.331 33.5426 212.411 32.5544 211.795 31.2725C211.179 29.9834 210.871 28.5833 210.871 27.0723C210.871 25.4323 211.215 23.9749 211.902 22.7002C212.59 21.4255 213.596 20.4479 214.921 19.7676C215.931 19.2448 217.188 18.9834 218.691 18.9834C220.646 18.9834 222.172 19.3952 223.268 20.2188C224.37 21.0352 225.079 22.1667 225.395 23.6133L222.236 24.2041C222.014 23.4307 221.595 22.8219 220.979 22.3779C220.371 21.9268 219.608 21.7012 218.691 21.7012C217.302 21.7012 216.196 22.1416 215.372 23.0225C214.556 23.9033 214.147 25.2103 214.147 26.9434C214.147 28.8125 214.563 30.2161 215.394 31.1543C216.224 32.0853 217.313 32.5508 218.659 32.5508C219.325 32.5508 219.991 32.4219 220.657 32.1641C221.33 31.8991 221.907 31.5804 222.387 31.208V29.21H218.745ZM248.05 35H244.591L243.216 31.4229H236.921L235.621 35H232.248L238.382 19.252H241.744L248.05 35ZM242.195 28.7695L240.025 22.9258L237.898 28.7695H242.195ZM249.736 19.252H255.548C256.858 19.252 257.857 19.3522 258.545 19.5527C259.469 19.8249 260.26 20.3083 260.919 21.0029C261.578 21.6976 262.079 22.5498 262.423 23.5596C262.767 24.5622 262.938 25.8011 262.938 27.2764C262.938 28.5726 262.777 29.6898 262.455 30.6279C262.061 31.7738 261.499 32.7012 260.769 33.4102C260.217 33.9473 259.472 34.3662 258.534 34.667C257.832 34.889 256.894 35 255.72 35H249.736V19.252ZM252.916 21.916V32.3467H255.29C256.178 32.3467 256.819 32.2965 257.213 32.1963C257.729 32.0674 258.155 31.849 258.491 31.541C258.835 31.2331 259.114 30.7282 259.329 30.0264C259.544 29.3174 259.651 28.3542 259.651 27.1367C259.651 25.9193 259.544 24.9847 259.329 24.333C259.114 23.6813 258.813 23.1729 258.427 22.8076C258.04 22.4424 257.549 22.1953 256.955 22.0664C256.511 21.9661 255.641 21.916 254.345 21.916H252.916ZM265.635 19.252H271.446C272.757 19.252 273.756 19.3522 274.443 19.5527C275.367 19.8249 276.159 20.3083 276.817 21.0029C277.476 21.6976 277.978 22.5498 278.321 23.5596C278.665 24.5622 278.837 25.8011 278.837 27.2764C278.837 28.5726 278.676 29.6898 278.354 30.6279C277.96 31.7738 277.397 32.7012 276.667 33.4102C276.116 33.9473 275.371 34.3662 274.433 34.667C273.731 34.889 272.793 35 271.618 35H265.635V19.252ZM268.814 21.916V32.3467H271.188C272.076 32.3467 272.717 32.2965 273.111 32.1963C273.627 32.0674 274.053 31.849 274.39 31.541C274.733 31.2331 275.013 30.7282 275.228 30.0264C275.442 29.3174 275.55 28.3542 275.55 27.1367C275.55 25.9193 275.442 24.9847 275.228 24.333C275.013 23.6813 274.712 23.1729 274.325 22.8076C273.938 22.4424 273.448 22.1953 272.854 22.0664C272.41 21.9661 271.539 21.916 270.243 21.916H268.814ZM281.555 35V19.252H288.247C289.93 19.252 291.151 19.3952 291.91 19.6816C292.676 19.9609 293.289 20.4622 293.747 21.1855C294.205 21.9089 294.435 22.736 294.435 23.667C294.435 24.8486 294.087 25.8262 293.393 26.5996C292.698 27.3659 291.66 27.8493 290.277 28.0498C290.965 28.4508 291.531 28.8913 291.975 29.3711C292.426 29.8509 293.031 30.7031 293.79 31.9277L295.713 35H291.91L289.611 31.5732C288.795 30.3486 288.236 29.5788 287.936 29.2637C287.635 28.9414 287.316 28.723 286.979 28.6084C286.643 28.4867 286.109 28.4258 285.379 28.4258H284.734V35H281.555ZM284.734 25.9121H287.087C288.612 25.9121 289.565 25.8477 289.944 25.7188C290.324 25.5898 290.621 25.3678 290.836 25.0527C291.051 24.7376 291.158 24.3438 291.158 23.8711C291.158 23.3411 291.015 22.915 290.729 22.5928C290.449 22.2633 290.052 22.0557 289.536 21.9697C289.278 21.9339 288.505 21.916 287.216 21.916H284.734V25.9121ZM297.442 35V19.252H309.119V21.916H300.622V25.4072H308.528V28.0605H300.622V32.3467H309.42V35H297.442ZM311.311 29.876L314.404 29.5752C314.59 30.6136 314.966 31.3763 315.532 31.8633C316.105 32.3503 316.875 32.5938 317.842 32.5938C318.866 32.5938 319.636 32.3789 320.151 31.9492C320.674 31.5124 320.936 31.0039 320.936 30.4238C320.936 30.0514 320.825 29.7363 320.603 29.4785C320.388 29.2135 320.008 28.9844 319.464 28.791C319.091 28.6621 318.243 28.4329 316.918 28.1035C315.214 27.681 314.018 27.1618 313.33 26.5459C312.363 25.6794 311.88 24.623 311.88 23.377C311.88 22.5749 312.105 21.8265 312.557 21.1318C313.015 20.43 313.67 19.8965 314.522 19.5312C315.382 19.166 316.417 18.9834 317.627 18.9834C319.604 18.9834 321.09 19.4167 322.085 20.2832C323.088 21.1497 323.614 22.3063 323.664 23.7529L320.484 23.8926C320.348 23.0833 320.055 22.5033 319.604 22.1523C319.16 21.7943 318.49 21.6152 317.595 21.6152C316.671 21.6152 315.948 21.805 315.425 22.1846C315.088 22.4281 314.92 22.7539 314.92 23.1621C314.92 23.5345 315.077 23.8532 315.393 24.1182C315.794 24.4548 316.768 24.8057 318.314 25.1709C319.861 25.5361 321.004 25.9157 321.741 26.3096C322.486 26.6963 323.066 27.2298 323.481 27.9102C323.904 28.5833 324.115 29.4176 324.115 30.4131C324.115 31.3154 323.865 32.1605 323.363 32.9482C322.862 33.736 322.153 34.3232 321.236 34.71C320.32 35.0895 319.177 35.2793 317.81 35.2793C315.819 35.2793 314.29 34.821 313.223 33.9043C312.156 32.9805 311.518 31.6377 311.311 29.876ZM325.984 29.876L329.078 29.5752C329.264 30.6136 329.64 31.3763 330.206 31.8633C330.779 32.3503 331.549 32.5938 332.516 32.5938C333.54 32.5938 334.31 32.3789 334.825 31.9492C335.348 31.5124 335.609 31.0039 335.609 30.4238C335.609 30.0514 335.498 29.7363 335.276 29.4785C335.062 29.2135 334.682 28.9844 334.138 28.791C333.765 28.6621 332.917 28.4329 331.592 28.1035C329.887 27.681 328.691 27.1618 328.004 26.5459C327.037 25.6794 326.554 24.623 326.554 23.377C326.554 22.5749 326.779 21.8265 327.23 21.1318C327.689 20.43 328.344 19.8965 329.196 19.5312C330.056 19.166 331.09 18.9834 332.301 18.9834C334.277 18.9834 335.763 19.4167 336.759 20.2832C337.761 21.1497 338.288 22.3063 338.338 23.7529L335.158 23.8926C335.022 23.0833 334.729 22.5033 334.277 22.1523C333.833 21.7943 333.164 21.6152 332.269 21.6152C331.345 21.6152 330.621 21.805 330.099 22.1846C329.762 22.4281 329.594 22.7539 329.594 23.1621C329.594 23.5345 329.751 23.8532 330.066 24.1182C330.467 24.4548 331.441 24.8057 332.988 25.1709C334.535 25.5361 335.677 25.9157 336.415 26.3096C337.16 26.6963 337.74 27.2298 338.155 27.9102C338.578 28.5833 338.789 29.4176 338.789 30.4131C338.789 31.3154 338.538 32.1605 338.037 32.9482C337.536 33.736 336.827 34.3232 335.91 34.71C334.993 35.0895 333.851 35.2793 332.483 35.2793C330.493 35.2793 328.964 34.821 327.896 33.9043C326.829 32.9805 326.192 31.6377 325.984 29.876ZM342.022 26.6104V23.5918H345.041V26.6104H342.022ZM342.022 35V31.9814H345.041V35H342.022Z" fill="#009EE8"/>
<path d="M139.961 68H138.555V59.0391C138.216 59.362 137.771 59.6849 137.219 60.0078C136.672 60.3307 136.18 60.5729 135.742 60.7344V59.375C136.529 59.0052 137.216 58.5573 137.805 58.0312C138.393 57.5052 138.81 56.9948 139.055 56.5H139.961V68ZM150.867 59.3516L149.469 59.4609C149.344 58.9089 149.167 58.5078 148.938 58.2578C148.557 57.8568 148.089 57.6562 147.531 57.6562C147.083 57.6562 146.69 57.7812 146.352 58.0312C145.909 58.3542 145.56 58.8255 145.305 59.4453C145.049 60.0651 144.917 60.9479 144.906 62.0938C145.245 61.5781 145.659 61.1953 146.148 60.9453C146.638 60.6953 147.151 60.5703 147.688 60.5703C148.625 60.5703 149.422 60.9167 150.078 61.6094C150.74 62.2969 151.07 63.1875 151.07 64.2812C151.07 65 150.914 65.6693 150.602 66.2891C150.294 66.9036 149.87 67.375 149.328 67.7031C148.786 68.0312 148.172 68.1953 147.484 68.1953C146.312 68.1953 145.357 67.7656 144.617 66.9062C143.878 66.0417 143.508 64.6198 143.508 62.6406C143.508 60.4271 143.917 58.8177 144.734 57.8125C145.448 56.9375 146.409 56.5 147.617 56.5C148.518 56.5 149.255 56.7526 149.828 57.2578C150.406 57.763 150.753 58.4609 150.867 59.3516ZM145.125 64.2891C145.125 64.7734 145.227 65.237 145.43 65.6797C145.638 66.1224 145.927 66.4609 146.297 66.6953C146.667 66.9245 147.055 67.0391 147.461 67.0391C148.055 67.0391 148.565 66.7995 148.992 66.3203C149.419 65.8411 149.633 65.1901 149.633 64.3672C149.633 63.5755 149.422 62.9531 149 62.5C148.578 62.0417 148.047 61.8125 147.406 61.8125C146.771 61.8125 146.232 62.0417 145.789 62.5C145.346 62.9531 145.125 63.5495 145.125 64.2891ZM154.641 61.7891C154.057 61.5755 153.625 61.2708 153.344 60.875C153.062 60.4792 152.922 60.0052 152.922 59.4531C152.922 58.6198 153.221 57.9193 153.82 57.3516C154.419 56.7839 155.216 56.5 156.211 56.5C157.211 56.5 158.016 56.7917 158.625 57.375C159.234 57.9531 159.539 58.6589 159.539 59.4922C159.539 60.0234 159.398 60.487 159.117 60.8828C158.841 61.2734 158.419 61.5755 157.852 61.7891C158.555 62.0182 159.089 62.388 159.453 62.8984C159.823 63.4089 160.008 64.0182 160.008 64.7266C160.008 65.7057 159.661 66.5286 158.969 67.1953C158.276 67.862 157.365 68.1953 156.234 68.1953C155.104 68.1953 154.193 67.862 153.5 67.1953C152.807 66.5234 152.461 65.6875 152.461 64.6875C152.461 63.9427 152.648 63.3203 153.023 62.8203C153.404 62.3151 153.943 61.9714 154.641 61.7891ZM154.359 59.4062C154.359 59.9479 154.534 60.3906 154.883 60.7344C155.232 61.0781 155.685 61.25 156.242 61.25C156.784 61.25 157.227 61.0807 157.57 60.7422C157.919 60.3984 158.094 59.9792 158.094 59.4844C158.094 58.9688 157.914 58.5365 157.555 58.1875C157.201 57.8333 156.758 57.6562 156.227 57.6562C155.69 57.6562 155.245 57.8281 154.891 58.1719C154.536 58.5156 154.359 58.9271 154.359 59.4062ZM153.906 64.6953C153.906 65.0964 154 65.4844 154.188 65.8594C154.38 66.2344 154.664 66.526 155.039 66.7344C155.414 66.9375 155.818 67.0391 156.25 67.0391C156.922 67.0391 157.477 66.8229 157.914 66.3906C158.352 65.9583 158.57 65.4089 158.57 64.7422C158.57 64.0651 158.344 63.5052 157.891 63.0625C157.443 62.6198 156.88 62.3984 156.203 62.3984C155.542 62.3984 154.992 62.6172 154.555 63.0547C154.122 63.4922 153.906 64.0391 153.906 64.6953ZM161.383 62.3516C161.383 60.9974 161.521 59.9089 161.797 59.0859C162.078 58.2578 162.492 57.6198 163.039 57.1719C163.591 56.724 164.284 56.5 165.117 56.5C165.732 56.5 166.271 56.625 166.734 56.875C167.198 57.1198 167.581 57.4766 167.883 57.9453C168.185 58.4089 168.422 58.9766 168.594 59.6484C168.766 60.3151 168.852 61.2161 168.852 62.3516C168.852 63.6953 168.714 64.7812 168.438 65.6094C168.161 66.4323 167.747 67.0703 167.195 67.5234C166.648 67.9714 165.956 68.1953 165.117 68.1953C164.013 68.1953 163.146 67.7995 162.516 67.0078C161.76 66.0547 161.383 64.5026 161.383 62.3516ZM162.828 62.3516C162.828 64.2318 163.047 65.4844 163.484 66.1094C163.927 66.7292 164.471 67.0391 165.117 67.0391C165.763 67.0391 166.305 66.7266 166.742 66.1016C167.185 65.4766 167.406 64.2266 167.406 62.3516C167.406 60.4661 167.185 59.2135 166.742 58.5938C166.305 57.974 165.758 57.6641 165.102 57.6641C164.456 57.6641 163.94 57.9375 163.555 58.4844C163.07 59.1823 162.828 60.4714 162.828 62.3516ZM174.797 64.3203L176.227 64.1953C176.294 64.7682 176.451 65.2396 176.695 65.6094C176.945 65.974 177.331 66.2708 177.852 66.5C178.372 66.724 178.958 66.8359 179.609 66.8359C180.188 66.8359 180.698 66.75 181.141 66.5781C181.583 66.4062 181.911 66.1719 182.125 65.875C182.344 65.5729 182.453 65.2448 182.453 64.8906C182.453 64.5312 182.349 64.2188 182.141 63.9531C181.932 63.6823 181.589 63.4557 181.109 63.2734C180.802 63.1536 180.122 62.9688 179.07 62.7188C178.018 62.4635 177.281 62.224 176.859 62C176.312 61.7135 175.904 61.3594 175.633 60.9375C175.367 60.5104 175.234 60.0339 175.234 59.5078C175.234 58.9297 175.398 58.3906 175.727 57.8906C176.055 57.3854 176.534 57.0026 177.164 56.7422C177.794 56.4818 178.495 56.3516 179.266 56.3516C180.115 56.3516 180.862 56.4896 181.508 56.7656C182.159 57.0365 182.659 57.4375 183.008 57.9688C183.357 58.5 183.544 59.1016 183.57 59.7734L182.117 59.8828C182.039 59.1589 181.773 58.612 181.32 58.2422C180.872 57.8724 180.208 57.6875 179.328 57.6875C178.411 57.6875 177.742 57.8568 177.32 58.1953C176.904 58.5286 176.695 58.9323 176.695 59.4062C176.695 59.8177 176.844 60.1562 177.141 60.4219C177.432 60.6875 178.193 60.9609 179.422 61.2422C180.656 61.5182 181.503 61.7604 181.961 61.9688C182.628 62.276 183.12 62.6667 183.438 63.1406C183.755 63.6094 183.914 64.151 183.914 64.7656C183.914 65.375 183.74 65.9505 183.391 66.4922C183.042 67.0286 182.539 67.4479 181.883 67.75C181.232 68.0469 180.497 68.1953 179.68 68.1953C178.643 68.1953 177.773 68.0443 177.07 67.7422C176.372 67.4401 175.823 66.987 175.422 66.3828C175.026 65.7734 174.818 65.0859 174.797 64.3203ZM185.281 63.8516C185.281 62.3151 185.708 61.1771 186.562 60.4375C187.276 59.8229 188.146 59.5156 189.172 59.5156C190.312 59.5156 191.245 59.8906 191.969 60.6406C192.693 61.3854 193.055 62.4167 193.055 63.7344C193.055 64.8021 192.893 65.6432 192.57 66.2578C192.253 66.8672 191.786 67.3411 191.172 67.6797C190.562 68.0182 189.896 68.1875 189.172 68.1875C188.01 68.1875 187.07 67.8151 186.352 67.0703C185.638 66.3255 185.281 65.2526 185.281 63.8516ZM186.727 63.8516C186.727 64.9141 186.958 65.7109 187.422 66.2422C187.885 66.7682 188.469 67.0312 189.172 67.0312C189.87 67.0312 190.451 66.7656 190.914 66.2344C191.378 65.7031 191.609 64.8932 191.609 63.8047C191.609 62.7786 191.375 62.0026 190.906 61.4766C190.443 60.9453 189.865 60.6797 189.172 60.6797C188.469 60.6797 187.885 60.9427 187.422 61.4688C186.958 61.9948 186.727 62.7891 186.727 63.8516ZM200.148 68V66.7812C199.503 67.7188 198.625 68.1875 197.516 68.1875C197.026 68.1875 196.568 68.0938 196.141 67.9062C195.719 67.7188 195.404 67.4844 195.195 67.2031C194.992 66.9167 194.849 66.5677 194.766 66.1562C194.708 65.8802 194.68 65.4427 194.68 64.8438V59.7031H196.086V64.3047C196.086 65.0391 196.115 65.5339 196.172 65.7891C196.26 66.1589 196.448 66.4505 196.734 66.6641C197.021 66.8724 197.375 66.9766 197.797 66.9766C198.219 66.9766 198.615 66.8698 198.984 66.6562C199.354 66.4375 199.615 66.1432 199.766 65.7734C199.922 65.3984 200 64.8568 200 64.1484V59.7031H201.406V68H200.148ZM206.688 66.7422L206.891 67.9844C206.495 68.0677 206.141 68.1094 205.828 68.1094C205.318 68.1094 204.922 68.0286 204.641 67.8672C204.359 67.7057 204.161 67.4948 204.047 67.2344C203.932 66.9688 203.875 66.4141 203.875 65.5703V60.7969H202.844V59.7031H203.875V57.6484L205.273 56.8047V59.7031H206.688V60.7969H205.273V65.6484C205.273 66.0495 205.297 66.3073 205.344 66.4219C205.396 66.5365 205.477 66.6276 205.586 66.6953C205.701 66.763 205.862 66.7969 206.07 66.7969C206.227 66.7969 206.432 66.7786 206.688 66.7422ZM208.07 68V56.5469H209.477V60.6562C210.133 59.8958 210.961 59.5156 211.961 59.5156C212.576 59.5156 213.109 59.638 213.562 59.8828C214.016 60.1224 214.339 60.4557 214.531 60.8828C214.729 61.3099 214.828 61.9297 214.828 62.7422V68H213.422V62.7422C213.422 62.0391 213.268 61.5286 212.961 61.2109C212.659 60.888 212.229 60.7266 211.672 60.7266C211.255 60.7266 210.862 60.8359 210.492 61.0547C210.128 61.2682 209.867 61.5599 209.711 61.9297C209.555 62.2995 209.477 62.8099 209.477 63.4609V68H208.07ZM219.461 68L223.859 56.5469H225.492L230.18 68H228.453L227.117 64.5312H222.328L221.07 68H219.461ZM222.766 63.2969H226.648L225.453 60.125C225.089 59.1615 224.818 58.3698 224.641 57.75C224.495 58.4844 224.289 59.2135 224.023 59.9375L222.766 63.2969ZM230.648 65.5234L232.039 65.3047C232.117 65.862 232.333 66.2891 232.688 66.5859C233.047 66.8828 233.547 67.0312 234.188 67.0312C234.833 67.0312 235.312 66.901 235.625 66.6406C235.938 66.375 236.094 66.0651 236.094 65.7109C236.094 65.3932 235.956 65.1432 235.68 64.9609C235.487 64.8359 235.008 64.6771 234.242 64.4844C233.211 64.224 232.495 64 232.094 63.8125C231.698 63.6198 231.396 63.3568 231.188 63.0234C230.984 62.6849 230.883 62.3125 230.883 61.9062C230.883 61.5365 230.966 61.1953 231.133 60.8828C231.305 60.5651 231.536 60.3021 231.828 60.0938C232.047 59.9323 232.344 59.7969 232.719 59.6875C233.099 59.5729 233.505 59.5156 233.938 59.5156C234.589 59.5156 235.159 59.6094 235.648 59.7969C236.143 59.9844 236.508 60.2396 236.742 60.5625C236.977 60.8802 237.138 61.3073 237.227 61.8438L235.852 62.0312C235.789 61.6042 235.607 61.2708 235.305 61.0312C235.008 60.7917 234.586 60.6719 234.039 60.6719C233.393 60.6719 232.932 60.7786 232.656 60.9922C232.38 61.2057 232.242 61.4557 232.242 61.7422C232.242 61.9245 232.299 62.0885 232.414 62.2344C232.529 62.3854 232.708 62.5104 232.953 62.6094C233.094 62.6615 233.508 62.7812 234.195 62.9688C235.19 63.2344 235.883 63.4531 236.273 63.625C236.669 63.7917 236.979 64.0365 237.203 64.3594C237.427 64.6823 237.539 65.0833 237.539 65.5625C237.539 66.0312 237.401 66.474 237.125 66.8906C236.854 67.3021 236.461 67.6224 235.945 67.8516C235.43 68.0755 234.846 68.1875 234.195 68.1875C233.117 68.1875 232.294 67.9635 231.727 67.5156C231.164 67.0677 230.805 66.4036 230.648 65.5234ZM239.211 68V56.5469H240.617V60.6562C241.273 59.8958 242.102 59.5156 243.102 59.5156C243.716 59.5156 244.25 59.638 244.703 59.8828C245.156 60.1224 245.479 60.4557 245.672 60.8828C245.87 61.3099 245.969 61.9297 245.969 62.7422V68H244.562V62.7422C244.562 62.0391 244.409 61.5286 244.102 61.2109C243.799 60.888 243.37 60.7266 242.812 60.7266C242.396 60.7266 242.003 60.8359 241.633 61.0547C241.268 61.2682 241.008 61.5599 240.852 61.9297C240.695 62.2995 240.617 62.8099 240.617 63.4609V68H239.211ZM248.086 68V56.5469H249.492V68H248.086ZM257.094 66.9766C256.573 67.4193 256.07 67.7318 255.586 67.9141C255.107 68.0964 254.591 68.1875 254.039 68.1875C253.128 68.1875 252.427 67.9661 251.938 67.5234C251.448 67.0755 251.203 66.5052 251.203 65.8125C251.203 65.4062 251.294 65.0365 251.477 64.7031C251.664 64.3646 251.906 64.0938 252.203 63.8906C252.505 63.6875 252.844 63.5339 253.219 63.4297C253.495 63.3568 253.911 63.2865 254.469 63.2188C255.604 63.0833 256.44 62.9219 256.977 62.7344C256.982 62.5417 256.984 62.4193 256.984 62.3672C256.984 61.7943 256.852 61.3906 256.586 61.1562C256.227 60.8385 255.693 60.6797 254.984 60.6797C254.323 60.6797 253.833 60.7969 253.516 61.0312C253.203 61.2604 252.971 61.6693 252.82 62.2578L251.445 62.0703C251.57 61.4818 251.776 61.0078 252.062 60.6484C252.349 60.2839 252.763 60.0052 253.305 59.8125C253.846 59.6146 254.474 59.5156 255.188 59.5156C255.896 59.5156 256.471 59.599 256.914 59.7656C257.357 59.9323 257.682 60.1432 257.891 60.3984C258.099 60.6484 258.245 60.9661 258.328 61.3516C258.375 61.5911 258.398 62.0234 258.398 62.6484V64.5234C258.398 65.8307 258.427 66.6589 258.484 67.0078C258.547 67.3516 258.667 67.6823 258.844 68H257.375C257.229 67.7083 257.135 67.3672 257.094 66.9766ZM256.977 63.8359C256.466 64.0443 255.701 64.2214 254.68 64.3672C254.102 64.4505 253.693 64.5443 253.453 64.6484C253.214 64.7526 253.029 64.9062 252.898 65.1094C252.768 65.3073 252.703 65.5286 252.703 65.7734C252.703 66.1484 252.844 66.4609 253.125 66.7109C253.411 66.9609 253.828 67.0859 254.375 67.0859C254.917 67.0859 255.398 66.9688 255.82 66.7344C256.242 66.4948 256.552 66.1693 256.75 65.7578C256.901 65.4401 256.977 64.9714 256.977 64.3516V63.8359ZM260.586 68V59.7031H261.852V60.8828C262.461 59.9714 263.341 59.5156 264.492 59.5156C264.992 59.5156 265.451 59.6068 265.867 59.7891C266.289 59.9661 266.604 60.2005 266.812 60.4922C267.021 60.7839 267.167 61.1302 267.25 61.5312C267.302 61.7917 267.328 62.2474 267.328 62.8984V68H265.922V62.9531C265.922 62.3802 265.867 61.9531 265.758 61.6719C265.648 61.3854 265.453 61.1589 265.172 60.9922C264.896 60.8203 264.57 60.7344 264.195 60.7344C263.596 60.7344 263.078 60.9245 262.641 61.3047C262.208 61.6849 261.992 62.4062 261.992 63.4688V68H260.586ZM274.875 68V66.9531C274.349 67.776 273.576 68.1875 272.555 68.1875C271.893 68.1875 271.284 68.0052 270.727 67.6406C270.174 67.276 269.745 66.7682 269.438 66.1172C269.135 65.4609 268.984 64.7083 268.984 63.8594C268.984 63.0312 269.122 62.2812 269.398 61.6094C269.674 60.9323 270.089 60.4141 270.641 60.0547C271.193 59.6953 271.81 59.5156 272.492 59.5156C272.992 59.5156 273.438 59.6224 273.828 59.8359C274.219 60.0443 274.536 60.3177 274.781 60.6562V56.5469H276.18V68H274.875ZM270.43 63.8594C270.43 64.9219 270.654 65.7161 271.102 66.2422C271.549 66.7682 272.078 67.0312 272.688 67.0312C273.302 67.0312 273.823 66.7812 274.25 66.2812C274.682 65.776 274.898 65.0078 274.898 63.9766C274.898 62.8411 274.68 62.0078 274.242 61.4766C273.805 60.9453 273.266 60.6797 272.625 60.6797C272 60.6797 271.477 60.9349 271.055 61.4453C270.638 61.9557 270.43 62.7604 270.43 63.8594ZM280.883 68L285.281 56.5469H286.914L291.602 68H289.875L288.539 64.5312H283.75L282.492 68H280.883ZM284.188 63.2969H288.07L286.875 60.125C286.51 59.1615 286.24 58.3698 286.062 57.75C285.917 58.4844 285.711 59.2135 285.445 59.9375L284.188 63.2969ZM294.641 68L291.484 59.7031H292.969L294.75 64.6719C294.943 65.2083 295.12 65.7656 295.281 66.3438C295.406 65.9062 295.581 65.3802 295.805 64.7656L297.648 59.7031H299.094L295.953 68H294.641ZM306.016 65.3281L307.469 65.5078C307.24 66.3568 306.815 67.0156 306.195 67.4844C305.576 67.9531 304.784 68.1875 303.82 68.1875C302.607 68.1875 301.643 67.8151 300.93 67.0703C300.221 66.3203 299.867 65.2708 299.867 63.9219C299.867 62.526 300.227 61.4427 300.945 60.6719C301.664 59.901 302.596 59.5156 303.742 59.5156C304.852 59.5156 305.758 59.8932 306.461 60.6484C307.164 61.4036 307.516 62.4661 307.516 63.8359C307.516 63.9193 307.513 64.0443 307.508 64.2109H301.32C301.372 65.1224 301.63 65.8203 302.094 66.3047C302.557 66.7891 303.135 67.0312 303.828 67.0312C304.344 67.0312 304.784 66.8958 305.148 66.625C305.513 66.3542 305.802 65.9219 306.016 65.3281ZM301.398 63.0547H306.031C305.969 62.3568 305.792 61.8333 305.5 61.4844C305.052 60.9427 304.471 60.6719 303.758 60.6719C303.112 60.6719 302.568 60.888 302.125 61.3203C301.688 61.7526 301.445 62.3307 301.398 63.0547ZM313.359 64.3203L314.789 64.1953C314.857 64.7682 315.013 65.2396 315.258 65.6094C315.508 65.974 315.893 66.2708 316.414 66.5C316.935 66.724 317.521 66.8359 318.172 66.8359C318.75 66.8359 319.26 66.75 319.703 66.5781C320.146 66.4062 320.474 66.1719 320.688 65.875C320.906 65.5729 321.016 65.2448 321.016 64.8906C321.016 64.5312 320.911 64.2188 320.703 63.9531C320.495 63.6823 320.151 63.4557 319.672 63.2734C319.365 63.1536 318.685 62.9688 317.633 62.7188C316.581 62.4635 315.844 62.224 315.422 62C314.875 61.7135 314.466 61.3594 314.195 60.9375C313.93 60.5104 313.797 60.0339 313.797 59.5078C313.797 58.9297 313.961 58.3906 314.289 57.8906C314.617 57.3854 315.096 57.0026 315.727 56.7422C316.357 56.4818 317.057 56.3516 317.828 56.3516C318.677 56.3516 319.424 56.4896 320.07 56.7656C320.721 57.0365 321.221 57.4375 321.57 57.9688C321.919 58.5 322.107 59.1016 322.133 59.7734L320.68 59.8828C320.602 59.1589 320.336 58.612 319.883 58.2422C319.435 57.8724 318.771 57.6875 317.891 57.6875C316.974 57.6875 316.305 57.8568 315.883 58.1953C315.466 58.5286 315.258 58.9323 315.258 59.4062C315.258 59.8177 315.406 60.1562 315.703 60.4219C315.995 60.6875 316.755 60.9609 317.984 61.2422C319.219 61.5182 320.065 61.7604 320.523 61.9688C321.19 62.276 321.682 62.6667 322 63.1406C322.318 63.6094 322.477 64.151 322.477 64.7656C322.477 65.375 322.302 65.9505 321.953 66.4922C321.604 67.0286 321.102 67.4479 320.445 67.75C319.794 68.0469 319.06 68.1953 318.242 68.1953C317.206 68.1953 316.336 68.0443 315.633 67.7422C314.935 67.4401 314.385 66.987 313.984 66.3828C313.589 65.7734 313.38 65.0859 313.359 64.3203ZM329.805 68V66.7812C329.159 67.7188 328.281 68.1875 327.172 68.1875C326.682 68.1875 326.224 68.0938 325.797 67.9062C325.375 67.7188 325.06 67.4844 324.852 67.2031C324.648 66.9167 324.505 66.5677 324.422 66.1562C324.365 65.8802 324.336 65.4427 324.336 64.8438V59.7031H325.742V64.3047C325.742 65.0391 325.771 65.5339 325.828 65.7891C325.917 66.1589 326.104 66.4505 326.391 66.6641C326.677 66.8724 327.031 66.9766 327.453 66.9766C327.875 66.9766 328.271 66.8698 328.641 66.6562C329.01 66.4375 329.271 66.1432 329.422 65.7734C329.578 65.3984 329.656 64.8568 329.656 64.1484V59.7031H331.062V68H329.805ZM333.281 58.1641V56.5469H334.688V58.1641H333.281ZM333.281 68V59.7031H334.688V68H333.281ZM339.906 66.7422L340.109 67.9844C339.714 68.0677 339.359 68.1094 339.047 68.1094C338.536 68.1094 338.141 68.0286 337.859 67.8672C337.578 67.7057 337.38 67.4948 337.266 67.2344C337.151 66.9688 337.094 66.4141 337.094 65.5703V60.7969H336.062V59.7031H337.094V57.6484L338.492 56.8047V59.7031H339.906V60.7969H338.492V65.6484C338.492 66.0495 338.516 66.3073 338.562 66.4219C338.615 66.5365 338.695 66.6276 338.805 66.6953C338.919 66.763 339.081 66.7969 339.289 66.7969C339.445 66.7969 339.651 66.7786 339.906 66.7422ZM341.039 68.1953L341.719 64.8672H340.398V63.7031H341.953L342.531 60.8672H340.398V59.7031H342.766L343.445 56.3516H344.617L343.938 59.7031H346.398L347.078 56.3516H348.258L347.578 59.7031H348.93V60.8672H347.344L346.758 63.7031H348.93V64.8672H346.523L345.844 68.1953H344.672L345.344 64.8672H342.891L342.211 68.1953H341.039ZM343.125 63.7031H345.578L346.164 60.8672H343.703L343.125 63.7031ZM354.266 64.9766L355.672 64.7891C355.833 65.5859 356.107 66.1615 356.492 66.5156C356.883 66.8646 357.357 67.0391 357.914 67.0391C358.576 67.0391 359.133 66.8099 359.586 66.3516C360.044 65.8932 360.273 65.3255 360.273 64.6484C360.273 64.0026 360.062 63.4714 359.641 63.0547C359.219 62.6328 358.682 62.4219 358.031 62.4219C357.766 62.4219 357.435 62.474 357.039 62.5781L357.195 61.3438C357.289 61.3542 357.365 61.3594 357.422 61.3594C358.021 61.3594 358.56 61.2031 359.039 60.8906C359.518 60.5781 359.758 60.0964 359.758 59.4453C359.758 58.9297 359.583 58.5026 359.234 58.1641C358.885 57.8255 358.435 57.6562 357.883 57.6562C357.336 57.6562 356.88 57.8281 356.516 58.1719C356.151 58.5156 355.917 59.0312 355.812 59.7188L354.406 59.4688C354.578 58.526 354.969 57.7969 355.578 57.2812C356.188 56.7604 356.945 56.5 357.852 56.5C358.477 56.5 359.052 56.6354 359.578 56.9062C360.104 57.1719 360.505 57.5365 360.781 58C361.062 58.4635 361.203 58.9557 361.203 59.4766C361.203 59.9714 361.07 60.4219 360.805 60.8281C360.539 61.2344 360.146 61.5573 359.625 61.7969C360.302 61.9531 360.828 62.2786 361.203 62.7734C361.578 63.263 361.766 63.8776 361.766 64.6172C361.766 65.6172 361.401 66.4661 360.672 67.1641C359.943 67.8568 359.021 68.2031 357.906 68.2031C356.901 68.2031 356.065 67.9036 355.398 67.3047C354.737 66.7057 354.359 65.9297 354.266 64.9766ZM363.164 62.3516C363.164 60.9974 363.302 59.9089 363.578 59.0859C363.859 58.2578 364.273 57.6198 364.82 57.1719C365.372 56.724 366.065 56.5 366.898 56.5C367.513 56.5 368.052 56.625 368.516 56.875C368.979 57.1198 369.362 57.4766 369.664 57.9453C369.966 58.4089 370.203 58.9766 370.375 59.6484C370.547 60.3151 370.633 61.2161 370.633 62.3516C370.633 63.6953 370.495 64.7812 370.219 65.6094C369.943 66.4323 369.529 67.0703 368.977 67.5234C368.43 67.9714 367.737 68.1953 366.898 68.1953C365.794 68.1953 364.927 67.7995 364.297 67.0078C363.542 66.0547 363.164 64.5026 363.164 62.3516ZM364.609 62.3516C364.609 64.2318 364.828 65.4844 365.266 66.1094C365.708 66.7292 366.253 67.0391 366.898 67.0391C367.544 67.0391 368.086 66.7266 368.523 66.1016C368.966 65.4766 369.188 64.2266 369.188 62.3516C369.188 60.4661 368.966 59.2135 368.523 58.5938C368.086 57.974 367.539 57.6641 366.883 57.6641C366.237 57.6641 365.721 57.9375 365.336 58.4844C364.852 59.1823 364.609 60.4714 364.609 62.3516ZM372.07 62.3516C372.07 60.9974 372.208 59.9089 372.484 59.0859C372.766 58.2578 373.18 57.6198 373.727 57.1719C374.279 56.724 374.971 56.5 375.805 56.5C376.419 56.5 376.958 56.625 377.422 56.875C377.885 57.1198 378.268 57.4766 378.57 57.9453C378.872 58.4089 379.109 58.9766 379.281 59.6484C379.453 60.3151 379.539 61.2161 379.539 62.3516C379.539 63.6953 379.401 64.7812 379.125 65.6094C378.849 66.4323 378.435 67.0703 377.883 67.5234C377.336 67.9714 376.643 68.1953 375.805 68.1953C374.701 68.1953 373.833 67.7995 373.203 67.0078C372.448 66.0547 372.07 64.5026 372.07 62.3516ZM373.516 62.3516C373.516 64.2318 373.734 65.4844 374.172 66.1094C374.615 66.7292 375.159 67.0391 375.805 67.0391C376.451 67.0391 376.992 66.7266 377.43 66.1016C377.872 65.4766 378.094 64.2266 378.094 62.3516C378.094 60.4661 377.872 59.2135 377.43 58.5938C376.992 57.974 376.445 57.6641 375.789 57.6641C375.143 57.6641 374.628 57.9375 374.242 58.4844C373.758 59.1823 373.516 60.4714 373.516 62.3516ZM381.07 58.0469V56.6953H388.484V57.7891C387.755 58.5651 387.031 59.5964 386.312 60.8828C385.599 62.1693 385.047 63.4922 384.656 64.8516C384.375 65.8099 384.195 66.8594 384.117 68H382.672C382.688 67.099 382.865 66.0104 383.203 64.7344C383.542 63.4583 384.026 62.2292 384.656 61.0469C385.292 59.8594 385.966 58.8594 386.68 58.0469H381.07ZM143.406 81.9844L144.922 82.3672C144.604 83.612 144.031 84.5625 143.203 85.2188C142.38 85.8698 141.372 86.1953 140.18 86.1953C138.945 86.1953 137.94 85.9453 137.164 85.4453C136.393 84.9401 135.805 84.2109 135.398 83.2578C134.997 82.3047 134.797 81.2812 134.797 80.1875C134.797 78.9948 135.023 77.9557 135.477 77.0703C135.935 76.1797 136.583 75.5052 137.422 75.0469C138.266 74.5833 139.193 74.3516 140.203 74.3516C141.349 74.3516 142.312 74.6432 143.094 75.2266C143.875 75.8099 144.419 76.6302 144.727 77.6875L143.234 78.0391C142.969 77.2057 142.583 76.599 142.078 76.2188C141.573 75.8385 140.938 75.6484 140.172 75.6484C139.292 75.6484 138.555 75.8594 137.961 76.2812C137.372 76.7031 136.958 77.2708 136.719 77.9844C136.479 78.6927 136.359 79.4245 136.359 80.1797C136.359 81.1536 136.5 82.0052 136.781 82.7344C137.068 83.4583 137.51 84 138.109 84.3594C138.708 84.7188 139.357 84.8984 140.055 84.8984C140.904 84.8984 141.622 84.6536 142.211 84.1641C142.799 83.6745 143.198 82.9479 143.406 81.9844ZM146.617 86V74.5469H148.023V78.6562C148.68 77.8958 149.508 77.5156 150.508 77.5156C151.122 77.5156 151.656 77.638 152.109 77.8828C152.562 78.1224 152.885 78.4557 153.078 78.8828C153.276 79.3099 153.375 79.9297 153.375 80.7422V86H151.969V80.7422C151.969 80.0391 151.815 79.5286 151.508 79.2109C151.206 78.888 150.776 78.7266 150.219 78.7266C149.802 78.7266 149.409 78.8359 149.039 79.0547C148.674 79.2682 148.414 79.5599 148.258 79.9297C148.102 80.2995 148.023 80.8099 148.023 81.4609V86H146.617ZM155.531 76.1641V74.5469H156.938V76.1641H155.531ZM155.531 86V77.7031H156.938V86H155.531ZM164.5 82.9609L165.883 83.1406C165.732 84.0938 165.344 84.8411 164.719 85.3828C164.099 85.9193 163.336 86.1875 162.43 86.1875C161.294 86.1875 160.38 85.8177 159.688 85.0781C159 84.3333 158.656 83.2682 158.656 81.8828C158.656 80.987 158.805 80.2031 159.102 79.5312C159.398 78.8594 159.849 78.3568 160.453 78.0234C161.062 77.6849 161.724 77.5156 162.438 77.5156C163.339 77.5156 164.076 77.7448 164.648 78.2031C165.221 78.6562 165.589 79.3021 165.75 80.1406L164.383 80.3516C164.253 79.7943 164.021 79.375 163.688 79.0938C163.359 78.8125 162.961 78.6719 162.492 78.6719C161.784 78.6719 161.208 78.9271 160.766 79.4375C160.323 79.9427 160.102 80.7448 160.102 81.8438C160.102 82.9583 160.315 83.7682 160.742 84.2734C161.169 84.7786 161.727 85.0312 162.414 85.0312C162.966 85.0312 163.427 84.862 163.797 84.5234C164.167 84.1849 164.401 83.6641 164.5 82.9609ZM172.5 84.9766C171.979 85.4193 171.477 85.7318 170.992 85.9141C170.513 86.0964 169.997 86.1875 169.445 86.1875C168.534 86.1875 167.833 85.9661 167.344 85.5234C166.854 85.0755 166.609 84.5052 166.609 83.8125C166.609 83.4062 166.701 83.0365 166.883 82.7031C167.07 82.3646 167.312 82.0938 167.609 81.8906C167.911 81.6875 168.25 81.5339 168.625 81.4297C168.901 81.3568 169.318 81.2865 169.875 81.2188C171.01 81.0833 171.846 80.9219 172.383 80.7344C172.388 80.5417 172.391 80.4193 172.391 80.3672C172.391 79.7943 172.258 79.3906 171.992 79.1562C171.633 78.8385 171.099 78.6797 170.391 78.6797C169.729 78.6797 169.24 78.7969 168.922 79.0312C168.609 79.2604 168.378 79.6693 168.227 80.2578L166.852 80.0703C166.977 79.4818 167.182 79.0078 167.469 78.6484C167.755 78.2839 168.169 78.0052 168.711 77.8125C169.253 77.6146 169.88 77.5156 170.594 77.5156C171.302 77.5156 171.878 77.599 172.32 77.7656C172.763 77.9323 173.089 78.1432 173.297 78.3984C173.505 78.6484 173.651 78.9661 173.734 79.3516C173.781 79.5911 173.805 80.0234 173.805 80.6484V82.5234C173.805 83.8307 173.833 84.6589 173.891 85.0078C173.953 85.3516 174.073 85.6823 174.25 86H172.781C172.635 85.7083 172.542 85.3672 172.5 84.9766ZM172.383 81.8359C171.872 82.0443 171.107 82.2214 170.086 82.3672C169.508 82.4505 169.099 82.5443 168.859 82.6484C168.62 82.7526 168.435 82.9062 168.305 83.1094C168.174 83.3073 168.109 83.5286 168.109 83.7734C168.109 84.1484 168.25 84.4609 168.531 84.7109C168.818 84.9609 169.234 85.0859 169.781 85.0859C170.323 85.0859 170.805 84.9688 171.227 84.7344C171.648 84.4948 171.958 84.1693 172.156 83.7578C172.307 83.4401 172.383 82.9714 172.383 82.3516V81.8359ZM175.734 86.6875L177.102 86.8906C177.159 87.3125 177.318 87.6198 177.578 87.8125C177.927 88.0729 178.404 88.2031 179.008 88.2031C179.659 88.2031 180.161 88.0729 180.516 87.8125C180.87 87.5521 181.109 87.1875 181.234 86.7188C181.307 86.4323 181.341 85.8307 181.336 84.9141C180.721 85.638 179.956 86 179.039 86C177.898 86 177.016 85.5885 176.391 84.7656C175.766 83.9427 175.453 82.9557 175.453 81.8047C175.453 81.013 175.596 80.2839 175.883 79.6172C176.169 78.9453 176.583 78.4271 177.125 78.0625C177.672 77.6979 178.312 77.5156 179.047 77.5156C180.026 77.5156 180.833 77.9115 181.469 78.7031V77.7031H182.766V84.875C182.766 86.1667 182.633 87.0807 182.367 87.6172C182.107 88.1589 181.69 88.5859 181.117 88.8984C180.549 89.2109 179.849 89.3672 179.016 89.3672C178.026 89.3672 177.227 89.1432 176.617 88.6953C176.008 88.2526 175.714 87.5833 175.734 86.6875ZM176.898 81.7031C176.898 82.7917 177.115 83.5859 177.547 84.0859C177.979 84.5859 178.521 84.8359 179.172 84.8359C179.818 84.8359 180.359 84.5885 180.797 84.0938C181.234 83.5938 181.453 82.8125 181.453 81.75C181.453 80.7344 181.227 79.9688 180.773 79.4531C180.326 78.9375 179.784 78.6797 179.148 78.6797C178.523 78.6797 177.992 78.9349 177.555 79.4453C177.117 79.9505 176.898 80.7031 176.898 81.7031ZM184.375 81.8516C184.375 80.3151 184.802 79.1771 185.656 78.4375C186.37 77.8229 187.24 77.5156 188.266 77.5156C189.406 77.5156 190.339 77.8906 191.062 78.6406C191.786 79.3854 192.148 80.4167 192.148 81.7344C192.148 82.8021 191.987 83.6432 191.664 84.2578C191.346 84.8672 190.88 85.3411 190.266 85.6797C189.656 86.0182 188.99 86.1875 188.266 86.1875C187.104 86.1875 186.164 85.8151 185.445 85.0703C184.732 84.3255 184.375 83.2526 184.375 81.8516ZM185.82 81.8516C185.82 82.9141 186.052 83.7109 186.516 84.2422C186.979 84.7682 187.562 85.0312 188.266 85.0312C188.964 85.0312 189.544 84.7656 190.008 84.2344C190.471 83.7031 190.703 82.8932 190.703 81.8047C190.703 80.7786 190.469 80.0026 190 79.4766C189.536 78.9453 188.958 78.6797 188.266 78.6797C187.562 78.6797 186.979 78.9427 186.516 79.4688C186.052 79.9948 185.82 80.7891 185.82 81.8516ZM194.172 86V84.3984H195.773V86C195.773 86.5885 195.669 87.0625 195.461 87.4219C195.253 87.7865 194.922 88.0677 194.469 88.2656L194.078 87.6641C194.375 87.5339 194.594 87.3411 194.734 87.0859C194.875 86.8359 194.953 86.474 194.969 86H194.172ZM203.148 86V74.5469H204.664V86H203.148ZM207.281 86V74.5469H208.797V84.6484H214.438V86H207.281ZM226.836 77.3516L225.438 77.4609C225.312 76.9089 225.135 76.5078 224.906 76.2578C224.526 75.8568 224.057 75.6562 223.5 75.6562C223.052 75.6562 222.659 75.7812 222.32 76.0312C221.878 76.3542 221.529 76.8255 221.273 77.4453C221.018 78.0651 220.885 78.9479 220.875 80.0938C221.214 79.5781 221.628 79.1953 222.117 78.9453C222.607 78.6953 223.12 78.5703 223.656 78.5703C224.594 78.5703 225.391 78.9167 226.047 79.6094C226.708 80.2969 227.039 81.1875 227.039 82.2812C227.039 83 226.883 83.6693 226.57 84.2891C226.263 84.9036 225.839 85.375 225.297 85.7031C224.755 86.0312 224.141 86.1953 223.453 86.1953C222.281 86.1953 221.326 85.7656 220.586 84.9062C219.846 84.0417 219.477 82.6198 219.477 80.6406C219.477 78.4271 219.885 76.8177 220.703 75.8125C221.417 74.9375 222.378 74.5 223.586 74.5C224.487 74.5 225.224 74.7526 225.797 75.2578C226.375 75.763 226.721 76.4609 226.836 77.3516ZM221.094 82.2891C221.094 82.7734 221.195 83.237 221.398 83.6797C221.607 84.1224 221.896 84.4609 222.266 84.6953C222.635 84.9245 223.023 85.0391 223.43 85.0391C224.023 85.0391 224.534 84.7995 224.961 84.3203C225.388 83.8411 225.602 83.1901 225.602 82.3672C225.602 81.5755 225.391 80.9531 224.969 80.5C224.547 80.0417 224.016 79.8125 223.375 79.8125C222.74 79.8125 222.201 80.0417 221.758 80.5C221.315 80.9531 221.094 81.5495 221.094 82.2891ZM228.445 80.3516C228.445 78.9974 228.583 77.9089 228.859 77.0859C229.141 76.2578 229.555 75.6198 230.102 75.1719C230.654 74.724 231.346 74.5 232.18 74.5C232.794 74.5 233.333 74.625 233.797 74.875C234.26 75.1198 234.643 75.4766 234.945 75.9453C235.247 76.4089 235.484 76.9766 235.656 77.6484C235.828 78.3151 235.914 79.2161 235.914 80.3516C235.914 81.6953 235.776 82.7812 235.5 83.6094C235.224 84.4323 234.81 85.0703 234.258 85.5234C233.711 85.9714 233.018 86.1953 232.18 86.1953C231.076 86.1953 230.208 85.7995 229.578 85.0078C228.823 84.0547 228.445 82.5026 228.445 80.3516ZM229.891 80.3516C229.891 82.2318 230.109 83.4844 230.547 84.1094C230.99 84.7292 231.534 85.0391 232.18 85.0391C232.826 85.0391 233.367 84.7266 233.805 84.1016C234.247 83.4766 234.469 82.2266 234.469 80.3516C234.469 78.4661 234.247 77.2135 233.805 76.5938C233.367 75.974 232.82 75.6641 232.164 75.6641C231.518 75.6641 231.003 75.9375 230.617 76.4844C230.133 77.1823 229.891 78.4714 229.891 80.3516ZM244.648 77.3516L243.25 77.4609C243.125 76.9089 242.948 76.5078 242.719 76.2578C242.339 75.8568 241.87 75.6562 241.312 75.6562C240.865 75.6562 240.471 75.7812 240.133 76.0312C239.69 76.3542 239.341 76.8255 239.086 77.4453C238.831 78.0651 238.698 78.9479 238.688 80.0938C239.026 79.5781 239.44 79.1953 239.93 78.9453C240.419 78.6953 240.932 78.5703 241.469 78.5703C242.406 78.5703 243.203 78.9167 243.859 79.6094C244.521 80.2969 244.852 81.1875 244.852 82.2812C244.852 83 244.695 83.6693 244.383 84.2891C244.076 84.9036 243.651 85.375 243.109 85.7031C242.568 86.0312 241.953 86.1953 241.266 86.1953C240.094 86.1953 239.138 85.7656 238.398 84.9062C237.659 84.0417 237.289 82.6198 237.289 80.6406C237.289 78.4271 237.698 76.8177 238.516 75.8125C239.229 74.9375 240.19 74.5 241.398 74.5C242.299 74.5 243.036 74.7526 243.609 75.2578C244.188 75.763 244.534 76.4609 244.648 77.3516ZM238.906 82.2891C238.906 82.7734 239.008 83.237 239.211 83.6797C239.419 84.1224 239.708 84.4609 240.078 84.6953C240.448 84.9245 240.836 85.0391 241.242 85.0391C241.836 85.0391 242.346 84.7995 242.773 84.3203C243.201 83.8411 243.414 83.1901 243.414 82.3672C243.414 81.5755 243.203 80.9531 242.781 80.5C242.359 80.0417 241.828 79.8125 241.188 79.8125C240.552 79.8125 240.013 80.0417 239.57 80.5C239.128 80.9531 238.906 81.5495 238.906 82.2891ZM246.258 80.3516C246.258 78.9974 246.396 77.9089 246.672 77.0859C246.953 76.2578 247.367 75.6198 247.914 75.1719C248.466 74.724 249.159 74.5 249.992 74.5C250.607 74.5 251.146 74.625 251.609 74.875C252.073 75.1198 252.456 75.4766 252.758 75.9453C253.06 76.4089 253.297 76.9766 253.469 77.6484C253.641 78.3151 253.727 79.2161 253.727 80.3516C253.727 81.6953 253.589 82.7812 253.312 83.6094C253.036 84.4323 252.622 85.0703 252.07 85.5234C251.523 85.9714 250.831 86.1953 249.992 86.1953C248.888 86.1953 248.021 85.7995 247.391 85.0078C246.635 84.0547 246.258 82.5026 246.258 80.3516ZM247.703 80.3516C247.703 82.2318 247.922 83.4844 248.359 84.1094C248.802 84.7292 249.346 85.0391 249.992 85.0391C250.638 85.0391 251.18 84.7266 251.617 84.1016C252.06 83.4766 252.281 82.2266 252.281 80.3516C252.281 78.4661 252.06 77.2135 251.617 76.5938C251.18 75.974 250.633 75.6641 249.977 75.6641C249.331 75.6641 248.815 75.9375 248.43 76.4844C247.945 77.1823 247.703 78.4714 247.703 80.3516ZM257.328 79.7891C256.745 79.5755 256.312 79.2708 256.031 78.875C255.75 78.4792 255.609 78.0052 255.609 77.4531C255.609 76.6198 255.909 75.9193 256.508 75.3516C257.107 74.7839 257.904 74.5 258.898 74.5C259.898 74.5 260.703 74.7917 261.312 75.375C261.922 75.9531 262.227 76.6589 262.227 77.4922C262.227 78.0234 262.086 78.487 261.805 78.8828C261.529 79.2734 261.107 79.5755 260.539 79.7891C261.242 80.0182 261.776 80.388 262.141 80.8984C262.51 81.4089 262.695 82.0182 262.695 82.7266C262.695 83.7057 262.349 84.5286 261.656 85.1953C260.964 85.862 260.052 86.1953 258.922 86.1953C257.792 86.1953 256.88 85.862 256.188 85.1953C255.495 84.5234 255.148 83.6875 255.148 82.6875C255.148 81.9427 255.336 81.3203 255.711 80.8203C256.091 80.3151 256.63 79.9714 257.328 79.7891ZM257.047 77.4062C257.047 77.9479 257.221 78.3906 257.57 78.7344C257.919 79.0781 258.372 79.25 258.93 79.25C259.471 79.25 259.914 79.0807 260.258 78.7422C260.607 78.3984 260.781 77.9792 260.781 77.4844C260.781 76.9688 260.602 76.5365 260.242 76.1875C259.888 75.8333 259.445 75.6562 258.914 75.6562C258.378 75.6562 257.932 75.8281 257.578 76.1719C257.224 76.5156 257.047 76.9271 257.047 77.4062ZM256.594 82.6953C256.594 83.0964 256.688 83.4844 256.875 83.8594C257.068 84.2344 257.352 84.526 257.727 84.7344C258.102 84.9375 258.505 85.0391 258.938 85.0391C259.609 85.0391 260.164 84.8229 260.602 84.3906C261.039 83.9583 261.258 83.4089 261.258 82.7422C261.258 82.0651 261.031 81.5052 260.578 81.0625C260.13 80.6198 259.568 80.3984 258.891 80.3984C258.229 80.3984 257.68 80.6172 257.242 81.0547C256.81 81.4922 256.594 82.0391 256.594 82.6953ZM263.914 82.5625V81.1484H268.234V82.5625H263.914ZM276.789 84.6484V86H269.219C269.208 85.6615 269.263 85.3359 269.383 85.0234C269.576 84.5078 269.883 84 270.305 83.5C270.732 83 271.346 82.4219 272.148 81.7656C273.393 80.7448 274.234 79.9375 274.672 79.3438C275.109 78.7448 275.328 78.1797 275.328 77.6484C275.328 77.0911 275.128 76.6224 274.727 76.2422C274.331 75.8568 273.812 75.6641 273.172 75.6641C272.495 75.6641 271.953 75.8672 271.547 76.2734C271.141 76.6797 270.935 77.2422 270.93 77.9609L269.484 77.8125C269.583 76.7344 269.956 75.9141 270.602 75.3516C271.247 74.7839 272.115 74.5 273.203 74.5C274.302 74.5 275.172 74.8047 275.812 75.4141C276.453 76.0234 276.773 76.7786 276.773 77.6797C276.773 78.138 276.68 78.5885 276.492 79.0312C276.305 79.474 275.992 79.9401 275.555 80.4297C275.122 80.9193 274.401 81.5911 273.391 82.4453C272.547 83.1536 272.005 83.6354 271.766 83.8906C271.526 84.1406 271.328 84.3932 271.172 84.6484H276.789ZM278.305 80.3516C278.305 78.9974 278.443 77.9089 278.719 77.0859C279 76.2578 279.414 75.6198 279.961 75.1719C280.513 74.724 281.206 74.5 282.039 74.5C282.654 74.5 283.193 74.625 283.656 74.875C284.12 75.1198 284.503 75.4766 284.805 75.9453C285.107 76.4089 285.344 76.9766 285.516 77.6484C285.688 78.3151 285.773 79.2161 285.773 80.3516C285.773 81.6953 285.635 82.7812 285.359 83.6094C285.083 84.4323 284.669 85.0703 284.117 85.5234C283.57 85.9714 282.878 86.1953 282.039 86.1953C280.935 86.1953 280.068 85.7995 279.438 85.0078C278.682 84.0547 278.305 82.5026 278.305 80.3516ZM279.75 80.3516C279.75 82.2318 279.969 83.4844 280.406 84.1094C280.849 84.7292 281.393 85.0391 282.039 85.0391C282.685 85.0391 283.227 84.7266 283.664 84.1016C284.107 83.4766 284.328 82.2266 284.328 80.3516C284.328 78.4661 284.107 77.2135 283.664 76.5938C283.227 75.974 282.68 75.6641 282.023 75.6641C281.378 75.6641 280.862 75.9375 280.477 76.4844C279.992 77.1823 279.75 78.4714 279.75 80.3516ZM292.508 86H291.102V77.0391C290.763 77.362 290.318 77.6849 289.766 78.0078C289.219 78.3307 288.727 78.5729 288.289 78.7344V77.375C289.076 77.0052 289.763 76.5573 290.352 76.0312C290.94 75.5052 291.357 74.9948 291.602 74.5H292.508V86ZM296.125 82.9766L297.531 82.7891C297.693 83.5859 297.966 84.1615 298.352 84.5156C298.742 84.8646 299.216 85.0391 299.773 85.0391C300.435 85.0391 300.992 84.8099 301.445 84.3516C301.904 83.8932 302.133 83.3255 302.133 82.6484C302.133 82.0026 301.922 81.4714 301.5 81.0547C301.078 80.6328 300.542 80.4219 299.891 80.4219C299.625 80.4219 299.294 80.474 298.898 80.5781L299.055 79.3438C299.148 79.3542 299.224 79.3594 299.281 79.3594C299.88 79.3594 300.419 79.2031 300.898 78.8906C301.378 78.5781 301.617 78.0964 301.617 77.4453C301.617 76.9297 301.443 76.5026 301.094 76.1641C300.745 75.8255 300.294 75.6562 299.742 75.6562C299.195 75.6562 298.74 75.8281 298.375 76.1719C298.01 76.5156 297.776 77.0312 297.672 77.7188L296.266 77.4688C296.438 76.526 296.828 75.7969 297.438 75.2812C298.047 74.7604 298.805 74.5 299.711 74.5C300.336 74.5 300.911 74.6354 301.438 74.9062C301.964 75.1719 302.365 75.5365 302.641 76C302.922 76.4635 303.062 76.9557 303.062 77.4766C303.062 77.9714 302.93 78.4219 302.664 78.8281C302.398 79.2344 302.005 79.5573 301.484 79.7969C302.161 79.9531 302.688 80.2786 303.062 80.7734C303.438 81.263 303.625 81.8776 303.625 82.6172C303.625 83.6172 303.26 84.4661 302.531 85.1641C301.802 85.8568 300.88 86.2031 299.766 86.2031C298.76 86.2031 297.924 85.9036 297.258 85.3047C296.596 84.7057 296.219 83.9297 296.125 82.9766Z" fill="#4D4D4D"/>
</svg>
