<svg width="256" height="163" viewBox="0 0 256 163" fill="none" xmlns="http://www.w3.org/2000/svg">
<circle cx="128" cy="40" r="40" fill="#009EE8"/>
<path d="M144 23.8461H112C109.8 23.8461 108.02 25.6461 108.02 27.8461L108 51.8461C108 54.0461 109.8 55.8461 112 55.8461H144C146.2 55.8461 148 54.0461 148 51.8461V27.8461C148 25.6461 146.2 23.8461 144 23.8461ZM144 31.8461L128 41.8461L112 31.8461V27.8461L128 37.8461L144 27.8461V31.8461Z" fill="white"/>
<path d="M42.5605 117V104.115H46.4541L48.792 112.904L51.1035 104.115H55.0059V117H52.5889V106.857L50.0312 117H47.5264L44.9775 106.857V117H42.5605ZM69.209 117H66.3789L65.2539 114.073H60.1035L59.04 117H56.2803L61.2988 104.115H64.0498L69.209 117ZM64.4189 111.902L62.6436 107.121L60.9033 111.902H64.4189ZM70.5186 117V104.115H73.1201V117H70.5186ZM75.6777 117V104.221H78.2793V114.829H84.748V117H75.6777ZM86.5322 117V104.115H89.1338V117H86.5322ZM91.6475 117V104.115H94.1787L99.4521 112.72V104.115H101.869V117H99.2588L94.0645 108.598V117H91.6475ZM110.623 112.263V110.092H116.23V115.225C115.686 115.752 114.895 116.218 113.857 116.622C112.826 117.021 111.78 117.22 110.72 117.22C109.372 117.22 108.197 116.938 107.195 116.376C106.193 115.808 105.44 114.999 104.937 113.95C104.433 112.896 104.181 111.75 104.181 110.514C104.181 109.172 104.462 107.979 105.024 106.937C105.587 105.894 106.41 105.094 107.494 104.537C108.32 104.109 109.349 103.896 110.579 103.896C112.179 103.896 113.427 104.232 114.323 104.906C115.226 105.574 115.806 106.5 116.063 107.684L113.479 108.167C113.298 107.534 112.955 107.036 112.451 106.673C111.953 106.304 111.329 106.119 110.579 106.119C109.442 106.119 108.537 106.479 107.863 107.2C107.195 107.921 106.861 108.99 106.861 110.408C106.861 111.938 107.201 113.086 107.881 113.854C108.561 114.615 109.451 114.996 110.553 114.996C111.098 114.996 111.643 114.891 112.188 114.68C112.738 114.463 113.21 114.202 113.603 113.897V112.263H110.623ZM134.6 117H131.77L130.645 114.073H125.494L124.431 117H121.671L126.689 104.115H129.44L134.6 117ZM129.81 111.902L128.034 107.121L126.294 111.902H129.81ZM135.979 104.115H140.734C141.807 104.115 142.624 104.197 143.187 104.361C143.942 104.584 144.59 104.979 145.129 105.548C145.668 106.116 146.078 106.813 146.359 107.64C146.641 108.46 146.781 109.474 146.781 110.681C146.781 111.741 146.649 112.655 146.386 113.423C146.063 114.36 145.604 115.119 145.006 115.699C144.555 116.139 143.945 116.481 143.178 116.728C142.604 116.909 141.836 117 140.875 117H135.979V104.115ZM138.581 106.295V114.829H140.523C141.25 114.829 141.774 114.788 142.097 114.706C142.519 114.601 142.867 114.422 143.143 114.17C143.424 113.918 143.652 113.505 143.828 112.931C144.004 112.351 144.092 111.562 144.092 110.566C144.092 109.57 144.004 108.806 143.828 108.272C143.652 107.739 143.406 107.323 143.09 107.024C142.773 106.726 142.372 106.523 141.886 106.418C141.522 106.336 140.811 106.295 139.75 106.295H138.581ZM148.987 104.115H153.742C154.814 104.115 155.632 104.197 156.194 104.361C156.95 104.584 157.598 104.979 158.137 105.548C158.676 106.116 159.086 106.813 159.367 107.64C159.648 108.46 159.789 109.474 159.789 110.681C159.789 111.741 159.657 112.655 159.394 113.423C159.071 114.36 158.611 115.119 158.014 115.699C157.562 116.139 156.953 116.481 156.186 116.728C155.611 116.909 154.844 117 153.883 117H148.987V104.115ZM151.589 106.295V114.829H153.531C154.258 114.829 154.782 114.788 155.104 114.706C155.526 114.601 155.875 114.422 156.15 114.17C156.432 113.918 156.66 113.505 156.836 112.931C157.012 112.351 157.1 111.562 157.1 110.566C157.1 109.57 157.012 108.806 156.836 108.272C156.66 107.739 156.414 107.323 156.098 107.024C155.781 106.726 155.38 106.523 154.894 106.418C154.53 106.336 153.818 106.295 152.758 106.295H151.589ZM162.013 117V104.115H167.488C168.865 104.115 169.864 104.232 170.485 104.467C171.112 104.695 171.613 105.105 171.988 105.697C172.363 106.289 172.551 106.966 172.551 107.728C172.551 108.694 172.267 109.494 171.698 110.127C171.13 110.754 170.28 111.149 169.149 111.313C169.712 111.642 170.175 112.002 170.538 112.395C170.907 112.787 171.402 113.484 172.023 114.486L173.597 117H170.485L168.604 114.196C167.937 113.194 167.479 112.564 167.233 112.307C166.987 112.043 166.727 111.864 166.451 111.771C166.176 111.671 165.739 111.621 165.142 111.621H164.614V117H162.013ZM164.614 109.564H166.539C167.787 109.564 168.566 109.512 168.877 109.406C169.188 109.301 169.431 109.119 169.606 108.861C169.782 108.604 169.87 108.281 169.87 107.895C169.87 107.461 169.753 107.112 169.519 106.849C169.29 106.579 168.965 106.409 168.543 106.339C168.332 106.31 167.699 106.295 166.645 106.295H164.614V109.564ZM175.012 117V104.115H184.565V106.295H177.613V109.151H184.082V111.322H177.613V114.829H184.812V117H175.012ZM186.358 112.808L188.89 112.562C189.042 113.411 189.35 114.035 189.812 114.434C190.281 114.832 190.911 115.031 191.702 115.031C192.54 115.031 193.17 114.855 193.592 114.504C194.02 114.146 194.233 113.73 194.233 113.256C194.233 112.951 194.143 112.693 193.961 112.482C193.785 112.266 193.475 112.078 193.029 111.92C192.725 111.814 192.03 111.627 190.946 111.357C189.552 111.012 188.573 110.587 188.011 110.083C187.22 109.374 186.824 108.51 186.824 107.49C186.824 106.834 187.009 106.222 187.378 105.653C187.753 105.079 188.289 104.643 188.986 104.344C189.689 104.045 190.536 103.896 191.526 103.896C193.144 103.896 194.359 104.25 195.174 104.959C195.994 105.668 196.425 106.614 196.466 107.798L193.864 107.912C193.753 107.25 193.513 106.775 193.144 106.488C192.78 106.195 192.232 106.049 191.5 106.049C190.744 106.049 190.152 106.204 189.725 106.515C189.449 106.714 189.312 106.98 189.312 107.314C189.312 107.619 189.44 107.88 189.698 108.097C190.026 108.372 190.823 108.659 192.089 108.958C193.354 109.257 194.289 109.567 194.893 109.89C195.502 110.206 195.977 110.643 196.316 111.199C196.662 111.75 196.835 112.433 196.835 113.247C196.835 113.985 196.63 114.677 196.22 115.321C195.81 115.966 195.229 116.446 194.479 116.763C193.729 117.073 192.795 117.229 191.676 117.229C190.047 117.229 188.796 116.854 187.923 116.104C187.05 115.348 186.528 114.249 186.358 112.808ZM198.364 112.808L200.896 112.562C201.048 113.411 201.355 114.035 201.818 114.434C202.287 114.832 202.917 115.031 203.708 115.031C204.546 115.031 205.176 114.855 205.598 114.504C206.025 114.146 206.239 113.73 206.239 113.256C206.239 112.951 206.148 112.693 205.967 112.482C205.791 112.266 205.48 112.078 205.035 111.92C204.73 111.814 204.036 111.627 202.952 111.357C201.558 111.012 200.579 110.587 200.017 110.083C199.226 109.374 198.83 108.51 198.83 107.49C198.83 106.834 199.015 106.222 199.384 105.653C199.759 105.079 200.295 104.643 200.992 104.344C201.695 104.045 202.542 103.896 203.532 103.896C205.149 103.896 206.365 104.25 207.18 104.959C208 105.668 208.431 106.614 208.472 107.798L205.87 107.912C205.759 107.25 205.519 106.775 205.149 106.488C204.786 106.195 204.238 106.049 203.506 106.049C202.75 106.049 202.158 106.204 201.73 106.515C201.455 106.714 201.317 106.98 201.317 107.314C201.317 107.619 201.446 107.88 201.704 108.097C202.032 108.372 202.829 108.659 204.095 108.958C205.36 109.257 206.295 109.567 206.898 109.89C207.508 110.206 207.982 110.643 208.322 111.199C208.668 111.75 208.841 112.433 208.841 113.247C208.841 113.985 208.636 114.677 208.226 115.321C207.815 115.966 207.235 116.446 206.485 116.763C205.735 117.073 204.801 117.229 203.682 117.229C202.053 117.229 200.802 116.854 199.929 116.104C199.056 115.348 198.534 114.249 198.364 112.808ZM211.486 110.136V107.666H213.956V110.136H211.486ZM211.486 117V114.53H213.956V117H211.486Z" fill="#009EE8"/>
<path d="M21.5576 144H20.3271V136.159C20.0309 136.442 19.6413 136.724 19.1582 137.007C18.6797 137.289 18.249 137.501 17.8662 137.643V136.453C18.5544 136.13 19.1559 135.738 19.6709 135.277C20.1859 134.817 20.5505 134.37 20.7646 133.938H21.5576V144ZM31.1006 136.433L29.877 136.528C29.7676 136.045 29.6126 135.694 29.4121 135.476C29.0794 135.125 28.6693 134.949 28.1816 134.949C27.7897 134.949 27.4456 135.059 27.1494 135.277C26.762 135.56 26.4567 135.972 26.2334 136.515C26.0101 137.057 25.8939 137.829 25.8848 138.832C26.181 138.381 26.5433 138.046 26.9717 137.827C27.4001 137.608 27.849 137.499 28.3184 137.499C29.1387 137.499 29.8359 137.802 30.4102 138.408C30.9889 139.01 31.2783 139.789 31.2783 140.746C31.2783 141.375 31.1416 141.961 30.8682 142.503C30.5993 143.041 30.2279 143.453 29.7539 143.74C29.2799 144.027 28.7422 144.171 28.1406 144.171C27.1152 144.171 26.279 143.795 25.6318 143.043C24.9847 142.286 24.6611 141.042 24.6611 139.311C24.6611 137.374 25.0189 135.965 25.7344 135.086C26.3587 134.32 27.1995 133.938 28.2568 133.938C29.0452 133.938 29.6901 134.159 30.1914 134.601C30.6973 135.043 31.0003 135.653 31.1006 136.433ZM26.0762 140.753C26.0762 141.177 26.165 141.582 26.3428 141.97C26.5251 142.357 26.778 142.653 27.1016 142.858C27.4251 143.059 27.7646 143.159 28.1201 143.159C28.6396 143.159 29.0863 142.95 29.46 142.53C29.8337 142.111 30.0205 141.541 30.0205 140.821C30.0205 140.129 29.8359 139.584 29.4668 139.188C29.0977 138.786 28.6328 138.586 28.0723 138.586C27.5163 138.586 27.0446 138.786 26.6572 139.188C26.2699 139.584 26.0762 140.106 26.0762 140.753ZM34.4023 138.565C33.8919 138.379 33.5137 138.112 33.2676 137.766C33.0215 137.419 32.8984 137.005 32.8984 136.521C32.8984 135.792 33.1605 135.179 33.6846 134.683C34.2087 134.186 34.9059 133.938 35.7764 133.938C36.6514 133.938 37.3555 134.193 37.8887 134.703C38.4219 135.209 38.6885 135.826 38.6885 136.556C38.6885 137.021 38.5654 137.426 38.3193 137.772C38.0778 138.114 37.7087 138.379 37.2119 138.565C37.8271 138.766 38.2943 139.09 38.6133 139.536C38.9368 139.983 39.0986 140.516 39.0986 141.136C39.0986 141.993 38.7956 142.713 38.1895 143.296C37.5833 143.879 36.7858 144.171 35.7969 144.171C34.8079 144.171 34.0104 143.879 33.4043 143.296C32.7982 142.708 32.4951 141.977 32.4951 141.102C32.4951 140.45 32.6592 139.905 32.9873 139.468C33.32 139.026 33.7917 138.725 34.4023 138.565ZM34.1562 136.48C34.1562 136.954 34.3089 137.342 34.6143 137.643C34.9196 137.943 35.3161 138.094 35.8037 138.094C36.2777 138.094 36.665 137.946 36.9658 137.649C37.2712 137.349 37.4238 136.982 37.4238 136.549C37.4238 136.098 37.2666 135.719 36.9521 135.414C36.6423 135.104 36.2549 134.949 35.79 134.949C35.3206 134.949 34.931 135.1 34.6211 135.4C34.3112 135.701 34.1562 136.061 34.1562 136.48ZM33.7598 141.108C33.7598 141.459 33.8418 141.799 34.0059 142.127C34.1745 142.455 34.4229 142.71 34.751 142.893C35.0791 143.07 35.4323 143.159 35.8105 143.159C36.3984 143.159 36.8838 142.97 37.2666 142.592C37.6494 142.214 37.8408 141.733 37.8408 141.149C37.8408 140.557 37.6426 140.067 37.2461 139.68C36.8542 139.292 36.362 139.099 35.7695 139.099C35.1908 139.099 34.71 139.29 34.3271 139.673C33.9489 140.056 33.7598 140.534 33.7598 141.108ZM40.3018 139.058C40.3018 137.873 40.4225 136.92 40.6641 136.2C40.9102 135.476 41.2725 134.917 41.751 134.525C42.234 134.133 42.8402 133.938 43.5693 133.938C44.1071 133.938 44.5788 134.047 44.9844 134.266C45.39 134.48 45.7249 134.792 45.9893 135.202C46.2536 135.608 46.4609 136.104 46.6113 136.692C46.7617 137.276 46.8369 138.064 46.8369 139.058C46.8369 140.233 46.7161 141.184 46.4746 141.908C46.2331 142.628 45.8708 143.187 45.3877 143.583C44.9092 143.975 44.3031 144.171 43.5693 144.171C42.6032 144.171 41.8444 143.825 41.293 143.132C40.6322 142.298 40.3018 140.94 40.3018 139.058ZM41.5664 139.058C41.5664 140.703 41.7578 141.799 42.1406 142.346C42.528 142.888 43.0042 143.159 43.5693 143.159C44.1344 143.159 44.6084 142.886 44.9912 142.339C45.3786 141.792 45.5723 140.698 45.5723 139.058C45.5723 137.408 45.3786 136.312 44.9912 135.77C44.6084 135.227 44.1299 134.956 43.5557 134.956C42.9906 134.956 42.5394 135.195 42.2021 135.674C41.7783 136.285 41.5664 137.412 41.5664 139.058ZM52.0391 140.78L53.29 140.671C53.3493 141.172 53.486 141.585 53.7002 141.908C53.9189 142.227 54.2562 142.487 54.7119 142.688C55.1676 142.883 55.6803 142.981 56.25 142.981C56.7559 142.981 57.2025 142.906 57.5898 142.756C57.9772 142.605 58.2643 142.4 58.4512 142.141C58.6426 141.876 58.7383 141.589 58.7383 141.279C58.7383 140.965 58.6471 140.691 58.4648 140.459C58.2826 140.222 57.9818 140.024 57.5625 139.864C57.2936 139.759 56.6989 139.598 55.7783 139.379C54.8577 139.156 54.2129 138.946 53.8438 138.75C53.3652 138.499 53.0075 138.189 52.7705 137.82C52.5381 137.447 52.4219 137.03 52.4219 136.569C52.4219 136.063 52.5654 135.592 52.8525 135.154C53.1396 134.712 53.5589 134.377 54.1104 134.149C54.6618 133.922 55.2747 133.808 55.9492 133.808C56.6921 133.808 57.346 133.928 57.9111 134.17C58.4808 134.407 58.9183 134.758 59.2236 135.223C59.529 135.688 59.693 136.214 59.7158 136.802L58.4443 136.897C58.376 136.264 58.1436 135.785 57.7471 135.462C57.3551 135.138 56.7741 134.977 56.0039 134.977C55.2018 134.977 54.6162 135.125 54.2471 135.421C53.8825 135.713 53.7002 136.066 53.7002 136.48C53.7002 136.84 53.8301 137.137 54.0898 137.369C54.3451 137.602 55.0104 137.841 56.0859 138.087C57.166 138.328 57.9066 138.54 58.3076 138.723C58.891 138.992 59.3216 139.333 59.5996 139.748C59.8776 140.158 60.0166 140.632 60.0166 141.17C60.0166 141.703 59.8639 142.207 59.5586 142.681C59.2533 143.15 58.8135 143.517 58.2393 143.781C57.6696 144.041 57.027 144.171 56.3115 144.171C55.4046 144.171 54.6436 144.039 54.0283 143.774C53.4176 143.51 52.9368 143.114 52.5859 142.585C52.2396 142.052 52.0573 141.45 52.0391 140.78ZM61.2129 140.37C61.2129 139.026 61.5866 138.03 62.334 137.383C62.9583 136.845 63.7194 136.576 64.6172 136.576C65.6152 136.576 66.431 136.904 67.0645 137.561C67.6979 138.212 68.0146 139.115 68.0146 140.268C68.0146 141.202 67.8734 141.938 67.5908 142.476C67.3128 143.009 66.9049 143.424 66.3672 143.72C65.834 144.016 65.2507 144.164 64.6172 144.164C63.6009 144.164 62.7783 143.838 62.1494 143.187C61.5251 142.535 61.2129 141.596 61.2129 140.37ZM62.4775 140.37C62.4775 141.3 62.6803 141.997 63.0859 142.462C63.4915 142.922 64.002 143.152 64.6172 143.152C65.2279 143.152 65.736 142.92 66.1416 142.455C66.5472 141.99 66.75 141.282 66.75 140.329C66.75 139.431 66.5449 138.752 66.1348 138.292C65.7292 137.827 65.2233 137.595 64.6172 137.595C64.002 137.595 63.4915 137.825 63.0859 138.285C62.6803 138.745 62.4775 139.44 62.4775 140.37ZM74.2217 144V142.934C73.6566 143.754 72.8887 144.164 71.918 144.164C71.4896 144.164 71.0885 144.082 70.7148 143.918C70.3457 143.754 70.07 143.549 69.8877 143.303C69.71 143.052 69.5846 142.747 69.5117 142.387C69.4616 142.145 69.4365 141.762 69.4365 141.238V136.74H70.667V140.767C70.667 141.409 70.6921 141.842 70.7422 142.065C70.8197 142.389 70.9837 142.644 71.2344 142.831C71.485 143.013 71.7949 143.104 72.1641 143.104C72.5332 143.104 72.8796 143.011 73.2031 142.824C73.5267 142.633 73.7546 142.375 73.8867 142.052C74.0234 141.724 74.0918 141.25 74.0918 140.63V136.74H75.3223V144H74.2217ZM79.9434 142.899L80.1211 143.986C79.7747 144.059 79.4648 144.096 79.1914 144.096C78.7448 144.096 78.3984 144.025 78.1523 143.884C77.9062 143.743 77.7331 143.558 77.6328 143.33C77.5326 143.098 77.4824 142.612 77.4824 141.874V137.697H76.5801V136.74H77.4824V134.942L78.7061 134.204V136.74H79.9434V137.697H78.7061V141.942C78.7061 142.293 78.7266 142.519 78.7676 142.619C78.8132 142.719 78.8838 142.799 78.9795 142.858C79.0798 142.918 79.221 142.947 79.4033 142.947C79.54 142.947 79.7201 142.931 79.9434 142.899ZM81.1533 144V133.979H82.3838V137.574C82.958 136.909 83.6826 136.576 84.5576 136.576C85.0954 136.576 85.5625 136.683 85.959 136.897C86.3555 137.107 86.638 137.399 86.8066 137.772C86.9798 138.146 87.0664 138.688 87.0664 139.399V144H85.8359V139.399C85.8359 138.784 85.7015 138.338 85.4326 138.06C85.1683 137.777 84.7923 137.636 84.3047 137.636C83.9401 137.636 83.596 137.731 83.2725 137.923C82.9535 138.11 82.7256 138.365 82.5889 138.688C82.4521 139.012 82.3838 139.459 82.3838 140.028V144H81.1533ZM91.1201 144L94.9688 133.979H96.3975L100.499 144H98.9883L97.8193 140.965H93.6289L92.5283 144H91.1201ZM94.0117 139.885H97.4092L96.3633 137.109C96.0443 136.266 95.8073 135.574 95.6523 135.031C95.5247 135.674 95.3447 136.312 95.1123 136.945L94.0117 139.885ZM100.909 141.833L102.126 141.642C102.194 142.129 102.383 142.503 102.693 142.763C103.008 143.022 103.445 143.152 104.006 143.152C104.571 143.152 104.99 143.038 105.264 142.811C105.537 142.578 105.674 142.307 105.674 141.997C105.674 141.719 105.553 141.5 105.312 141.341C105.143 141.231 104.724 141.092 104.054 140.924C103.151 140.696 102.525 140.5 102.174 140.336C101.827 140.167 101.563 139.937 101.381 139.646C101.203 139.349 101.114 139.023 101.114 138.668C101.114 138.344 101.187 138.046 101.333 137.772C101.483 137.494 101.686 137.264 101.941 137.082C102.133 136.941 102.393 136.822 102.721 136.727C103.053 136.626 103.409 136.576 103.787 136.576C104.357 136.576 104.856 136.658 105.284 136.822C105.717 136.986 106.036 137.21 106.241 137.492C106.446 137.77 106.588 138.144 106.665 138.613L105.462 138.777C105.407 138.404 105.248 138.112 104.983 137.902C104.724 137.693 104.354 137.588 103.876 137.588C103.311 137.588 102.908 137.681 102.666 137.868C102.424 138.055 102.304 138.274 102.304 138.524C102.304 138.684 102.354 138.827 102.454 138.955C102.554 139.087 102.712 139.197 102.926 139.283C103.049 139.329 103.411 139.434 104.013 139.598C104.883 139.83 105.489 140.021 105.831 140.172C106.177 140.318 106.449 140.532 106.645 140.814C106.84 141.097 106.938 141.448 106.938 141.867C106.938 142.277 106.818 142.665 106.576 143.029C106.339 143.389 105.995 143.67 105.544 143.87C105.093 144.066 104.582 144.164 104.013 144.164C103.069 144.164 102.349 143.968 101.853 143.576C101.36 143.184 101.046 142.603 100.909 141.833ZM108.401 144V133.979H109.632V137.574C110.206 136.909 110.931 136.576 111.806 136.576C112.343 136.576 112.811 136.683 113.207 136.897C113.604 137.107 113.886 137.399 114.055 137.772C114.228 138.146 114.314 138.688 114.314 139.399V144H113.084V139.399C113.084 138.784 112.95 138.338 112.681 138.06C112.416 137.777 112.04 137.636 111.553 137.636C111.188 137.636 110.844 137.731 110.521 137.923C110.201 138.11 109.974 138.365 109.837 138.688C109.7 139.012 109.632 139.459 109.632 140.028V144H108.401ZM116.167 144V133.979H117.397V144H116.167ZM124.049 143.104C123.593 143.492 123.153 143.765 122.729 143.925C122.31 144.084 121.859 144.164 121.376 144.164C120.578 144.164 119.965 143.97 119.537 143.583C119.109 143.191 118.895 142.692 118.895 142.086C118.895 141.73 118.974 141.407 119.134 141.115C119.298 140.819 119.51 140.582 119.77 140.404C120.034 140.227 120.33 140.092 120.658 140.001C120.9 139.937 121.264 139.876 121.752 139.816C122.745 139.698 123.477 139.557 123.946 139.393C123.951 139.224 123.953 139.117 123.953 139.071C123.953 138.57 123.837 138.217 123.604 138.012C123.29 137.734 122.823 137.595 122.203 137.595C121.624 137.595 121.196 137.697 120.918 137.902C120.645 138.103 120.442 138.461 120.31 138.976L119.106 138.812C119.216 138.297 119.396 137.882 119.646 137.567C119.897 137.248 120.259 137.005 120.733 136.836C121.207 136.663 121.757 136.576 122.381 136.576C123.001 136.576 123.504 136.649 123.892 136.795C124.279 136.941 124.564 137.125 124.746 137.349C124.928 137.567 125.056 137.845 125.129 138.183C125.17 138.392 125.19 138.771 125.19 139.317V140.958C125.19 142.102 125.215 142.826 125.266 143.132C125.32 143.433 125.425 143.722 125.58 144H124.295C124.167 143.745 124.085 143.446 124.049 143.104ZM123.946 140.356C123.5 140.539 122.83 140.694 121.937 140.821C121.431 140.894 121.073 140.976 120.863 141.067C120.654 141.159 120.492 141.293 120.378 141.471C120.264 141.644 120.207 141.838 120.207 142.052C120.207 142.38 120.33 142.653 120.576 142.872C120.827 143.091 121.191 143.2 121.67 143.2C122.144 143.2 122.565 143.098 122.935 142.893C123.304 142.683 123.575 142.398 123.748 142.038C123.88 141.76 123.946 141.35 123.946 140.808V140.356ZM127.104 144V136.74H128.212V137.772C128.745 136.975 129.515 136.576 130.522 136.576C130.96 136.576 131.361 136.656 131.726 136.815C132.095 136.97 132.37 137.175 132.553 137.431C132.735 137.686 132.863 137.989 132.936 138.34C132.981 138.568 133.004 138.966 133.004 139.536V144H131.773V139.584C131.773 139.083 131.726 138.709 131.63 138.463C131.534 138.212 131.363 138.014 131.117 137.868C130.876 137.718 130.591 137.643 130.263 137.643C129.739 137.643 129.285 137.809 128.902 138.142C128.524 138.474 128.335 139.105 128.335 140.035V144H127.104ZM139.607 144V143.084C139.147 143.804 138.47 144.164 137.577 144.164C136.998 144.164 136.465 144.005 135.978 143.686C135.494 143.367 135.118 142.922 134.85 142.353C134.585 141.778 134.453 141.12 134.453 140.377C134.453 139.652 134.574 138.996 134.815 138.408C135.057 137.816 135.419 137.362 135.902 137.048C136.385 136.733 136.925 136.576 137.522 136.576C137.96 136.576 138.35 136.67 138.691 136.856C139.033 137.039 139.311 137.278 139.525 137.574V133.979H140.749V144H139.607ZM135.718 140.377C135.718 141.307 135.914 142.002 136.306 142.462C136.698 142.922 137.16 143.152 137.693 143.152C138.231 143.152 138.687 142.934 139.061 142.496C139.439 142.054 139.628 141.382 139.628 140.479C139.628 139.486 139.437 138.757 139.054 138.292C138.671 137.827 138.199 137.595 137.639 137.595C137.092 137.595 136.634 137.818 136.265 138.265C135.9 138.711 135.718 139.415 135.718 140.377ZM144.864 144L148.713 133.979H150.142L154.243 144H152.732L151.563 140.965H147.373L146.272 144H144.864ZM147.756 139.885H151.153L150.107 137.109C149.788 136.266 149.551 135.574 149.396 135.031C149.269 135.674 149.089 136.312 148.856 136.945L147.756 139.885ZM156.902 144L154.141 136.74H155.439L156.998 141.088C157.167 141.557 157.322 142.045 157.463 142.551C157.572 142.168 157.725 141.708 157.921 141.17L159.534 136.74H160.799L158.051 144H156.902ZM166.855 141.662L168.127 141.819C167.926 142.562 167.555 143.139 167.013 143.549C166.47 143.959 165.778 144.164 164.935 144.164C163.873 144.164 163.03 143.838 162.405 143.187C161.785 142.53 161.476 141.612 161.476 140.432C161.476 139.21 161.79 138.262 162.419 137.588C163.048 136.913 163.864 136.576 164.866 136.576C165.837 136.576 166.63 136.907 167.245 137.567C167.86 138.228 168.168 139.158 168.168 140.356C168.168 140.429 168.166 140.539 168.161 140.685H162.747C162.793 141.482 163.018 142.093 163.424 142.517C163.829 142.94 164.335 143.152 164.941 143.152C165.393 143.152 165.778 143.034 166.097 142.797C166.416 142.56 166.669 142.182 166.855 141.662ZM162.815 139.673H166.869C166.814 139.062 166.66 138.604 166.404 138.299C166.012 137.825 165.504 137.588 164.88 137.588C164.315 137.588 163.839 137.777 163.451 138.155C163.068 138.534 162.856 139.039 162.815 139.673ZM173.281 140.78L174.532 140.671C174.591 141.172 174.728 141.585 174.942 141.908C175.161 142.227 175.498 142.487 175.954 142.688C176.41 142.883 176.923 142.981 177.492 142.981C177.998 142.981 178.445 142.906 178.832 142.756C179.219 142.605 179.507 142.4 179.693 142.141C179.885 141.876 179.98 141.589 179.98 141.279C179.98 140.965 179.889 140.691 179.707 140.459C179.525 140.222 179.224 140.024 178.805 139.864C178.536 139.759 177.941 139.598 177.021 139.379C176.1 139.156 175.455 138.946 175.086 138.75C174.607 138.499 174.25 138.189 174.013 137.82C173.78 137.447 173.664 137.03 173.664 136.569C173.664 136.063 173.808 135.592 174.095 135.154C174.382 134.712 174.801 134.377 175.353 134.149C175.904 133.922 176.517 133.808 177.191 133.808C177.934 133.808 178.588 133.928 179.153 134.17C179.723 134.407 180.16 134.758 180.466 135.223C180.771 135.688 180.935 136.214 180.958 136.802L179.687 136.897C179.618 136.264 179.386 135.785 178.989 135.462C178.597 135.138 178.016 134.977 177.246 134.977C176.444 134.977 175.858 135.125 175.489 135.421C175.125 135.713 174.942 136.066 174.942 136.48C174.942 136.84 175.072 137.137 175.332 137.369C175.587 137.602 176.253 137.841 177.328 138.087C178.408 138.328 179.149 138.54 179.55 138.723C180.133 138.992 180.564 139.333 180.842 139.748C181.12 140.158 181.259 140.632 181.259 141.17C181.259 141.703 181.106 142.207 180.801 142.681C180.495 143.15 180.056 143.517 179.481 143.781C178.912 144.041 178.269 144.171 177.554 144.171C176.647 144.171 175.886 144.039 175.271 143.774C174.66 143.51 174.179 143.114 173.828 142.585C173.482 142.052 173.299 141.45 173.281 140.78ZM187.671 144V142.934C187.106 143.754 186.338 144.164 185.367 144.164C184.939 144.164 184.538 144.082 184.164 143.918C183.795 143.754 183.519 143.549 183.337 143.303C183.159 143.052 183.034 142.747 182.961 142.387C182.911 142.145 182.886 141.762 182.886 141.238V136.74H184.116V140.767C184.116 141.409 184.141 141.842 184.191 142.065C184.269 142.389 184.433 142.644 184.684 142.831C184.934 143.013 185.244 143.104 185.613 143.104C185.982 143.104 186.329 143.011 186.652 142.824C186.976 142.633 187.204 142.375 187.336 142.052C187.473 141.724 187.541 141.25 187.541 140.63V136.74H188.771V144H187.671ZM190.713 135.394V133.979H191.943V135.394H190.713ZM190.713 144V136.74H191.943V144H190.713ZM196.51 142.899L196.688 143.986C196.341 144.059 196.031 144.096 195.758 144.096C195.311 144.096 194.965 144.025 194.719 143.884C194.473 143.743 194.299 143.558 194.199 143.33C194.099 143.098 194.049 142.612 194.049 141.874V137.697H193.146V136.74H194.049V134.942L195.272 134.204V136.74H196.51V137.697H195.272V141.942C195.272 142.293 195.293 142.519 195.334 142.619C195.38 142.719 195.45 142.799 195.546 142.858C195.646 142.918 195.787 142.947 195.97 142.947C196.106 142.947 196.286 142.931 196.51 142.899ZM197.501 144.171L198.096 141.259H196.94V140.24H198.301L198.807 137.759H196.94V136.74H199.012L199.606 133.808H200.632L200.037 136.74H202.19L202.785 133.808H203.817L203.223 136.74H204.405V137.759H203.018L202.505 140.24H204.405V141.259H202.3L201.705 144.171H200.68L201.268 141.259H199.121L198.526 144.171H197.501ZM199.326 140.24H201.473L201.985 137.759H199.832L199.326 140.24ZM209.074 141.354L210.305 141.19C210.446 141.888 210.685 142.391 211.022 142.701C211.364 143.007 211.779 143.159 212.267 143.159C212.845 143.159 213.333 142.959 213.729 142.558C214.131 142.157 214.331 141.66 214.331 141.067C214.331 140.502 214.146 140.037 213.777 139.673C213.408 139.304 212.939 139.119 212.369 139.119C212.137 139.119 211.847 139.165 211.501 139.256L211.638 138.176C211.72 138.185 211.786 138.189 211.836 138.189C212.36 138.189 212.832 138.053 213.251 137.779C213.67 137.506 213.88 137.084 213.88 136.515C213.88 136.063 213.727 135.69 213.422 135.394C213.117 135.097 212.722 134.949 212.239 134.949C211.761 134.949 211.362 135.1 211.043 135.4C210.724 135.701 210.519 136.152 210.428 136.754L209.197 136.535C209.348 135.71 209.689 135.072 210.223 134.621C210.756 134.165 211.419 133.938 212.212 133.938C212.759 133.938 213.262 134.056 213.723 134.293C214.183 134.525 214.534 134.844 214.775 135.25C215.021 135.656 215.145 136.086 215.145 136.542C215.145 136.975 215.028 137.369 214.796 137.725C214.563 138.08 214.219 138.363 213.764 138.572C214.356 138.709 214.816 138.994 215.145 139.427C215.473 139.855 215.637 140.393 215.637 141.04C215.637 141.915 215.318 142.658 214.68 143.269C214.042 143.875 213.235 144.178 212.26 144.178C211.38 144.178 210.649 143.916 210.065 143.392C209.487 142.868 209.156 142.188 209.074 141.354ZM216.86 139.058C216.86 137.873 216.981 136.92 217.223 136.2C217.469 135.476 217.831 134.917 218.31 134.525C218.793 134.133 219.399 133.938 220.128 133.938C220.666 133.938 221.137 134.047 221.543 134.266C221.949 134.48 222.284 134.792 222.548 135.202C222.812 135.608 223.02 136.104 223.17 136.692C223.32 137.276 223.396 138.064 223.396 139.058C223.396 140.233 223.275 141.184 223.033 141.908C222.792 142.628 222.429 143.187 221.946 143.583C221.468 143.975 220.862 144.171 220.128 144.171C219.162 144.171 218.403 143.825 217.852 143.132C217.191 142.298 216.86 140.94 216.86 139.058ZM218.125 139.058C218.125 140.703 218.316 141.799 218.699 142.346C219.087 142.888 219.563 143.159 220.128 143.159C220.693 143.159 221.167 142.886 221.55 142.339C221.937 141.792 222.131 140.698 222.131 139.058C222.131 137.408 221.937 136.312 221.55 135.77C221.167 135.227 220.688 134.956 220.114 134.956C219.549 134.956 219.098 135.195 218.761 135.674C218.337 136.285 218.125 137.412 218.125 139.058ZM224.653 139.058C224.653 137.873 224.774 136.92 225.016 136.2C225.262 135.476 225.624 134.917 226.103 134.525C226.586 134.133 227.192 133.938 227.921 133.938C228.459 133.938 228.93 134.047 229.336 134.266C229.742 134.48 230.076 134.792 230.341 135.202C230.605 135.608 230.812 136.104 230.963 136.692C231.113 137.276 231.188 138.064 231.188 139.058C231.188 140.233 231.068 141.184 230.826 141.908C230.585 142.628 230.222 143.187 229.739 143.583C229.261 143.975 228.655 144.171 227.921 144.171C226.955 144.171 226.196 143.825 225.645 143.132C224.984 142.298 224.653 140.94 224.653 139.058ZM225.918 139.058C225.918 140.703 226.109 141.799 226.492 142.346C226.88 142.888 227.356 143.159 227.921 143.159C228.486 143.159 228.96 142.886 229.343 142.339C229.73 141.792 229.924 140.698 229.924 139.058C229.924 137.408 229.73 136.312 229.343 135.77C228.96 135.227 228.481 134.956 227.907 134.956C227.342 134.956 226.891 135.195 226.554 135.674C226.13 136.285 225.918 137.412 225.918 139.058ZM232.528 135.291V134.108H239.016V135.065C238.378 135.744 237.744 136.647 237.115 137.772C236.491 138.898 236.008 140.056 235.666 141.245C235.42 142.084 235.263 143.002 235.194 144H233.93C233.943 143.212 234.098 142.259 234.395 141.143C234.691 140.026 235.115 138.951 235.666 137.916C236.222 136.877 236.812 136.002 237.437 135.291H232.528ZM61.6982 156.486L63.0244 156.821C62.7464 157.91 62.2451 158.742 61.5205 159.316C60.8005 159.886 59.9186 160.171 58.875 160.171C57.7949 160.171 56.9154 159.952 56.2363 159.515C55.5618 159.073 55.0469 158.435 54.6914 157.601C54.3405 156.767 54.165 155.871 54.165 154.914C54.165 153.87 54.3633 152.961 54.7598 152.187C55.1608 151.407 55.7282 150.817 56.4619 150.416C57.2002 150.01 58.0114 149.808 58.8955 149.808C59.8981 149.808 60.7412 150.063 61.4248 150.573C62.1084 151.084 62.5846 151.801 62.8535 152.727L61.5479 153.034C61.3154 152.305 60.9782 151.774 60.5361 151.441C60.0941 151.109 59.5381 150.942 58.8682 150.942C58.098 150.942 57.4531 151.127 56.9336 151.496C56.4186 151.865 56.0563 152.362 55.8467 152.986C55.637 153.606 55.5322 154.246 55.5322 154.907C55.5322 155.759 55.6553 156.505 55.9014 157.143C56.152 157.776 56.5394 158.25 57.0635 158.564C57.5876 158.879 58.1549 159.036 58.7656 159.036C59.5085 159.036 60.1374 158.822 60.6523 158.394C61.1673 157.965 61.516 157.329 61.6982 156.486ZM64.5078 160V149.979H65.7383V153.574C66.3125 152.909 67.0371 152.576 67.9121 152.576C68.4499 152.576 68.917 152.683 69.3135 152.897C69.71 153.107 69.9925 153.399 70.1611 153.772C70.3343 154.146 70.4209 154.688 70.4209 155.399V160H69.1904V155.399C69.1904 154.784 69.056 154.338 68.7871 154.06C68.5228 153.777 68.1468 153.636 67.6592 153.636C67.2946 153.636 66.9505 153.731 66.627 153.923C66.3079 154.11 66.0801 154.365 65.9434 154.688C65.8066 155.012 65.7383 155.459 65.7383 156.028V160H64.5078ZM72.3076 151.394V149.979H73.5381V151.394H72.3076ZM72.3076 160V152.74H73.5381V160H72.3076ZM80.1553 157.341L81.3652 157.498C81.2331 158.332 80.8936 158.986 80.3467 159.46C79.8044 159.929 79.1367 160.164 78.3438 160.164C77.3503 160.164 76.5505 159.84 75.9443 159.193C75.3428 158.542 75.042 157.61 75.042 156.397C75.042 155.614 75.1719 154.928 75.4316 154.34C75.6914 153.752 76.0856 153.312 76.6143 153.021C77.1475 152.724 77.7262 152.576 78.3506 152.576C79.139 152.576 79.7839 152.777 80.2852 153.178C80.7865 153.574 81.1077 154.139 81.249 154.873L80.0527 155.058C79.9388 154.57 79.736 154.203 79.4443 153.957C79.1572 153.711 78.8086 153.588 78.3984 153.588C77.7786 153.588 77.2751 153.811 76.8877 154.258C76.5003 154.7 76.3066 155.402 76.3066 156.363C76.3066 157.339 76.4935 158.047 76.8672 158.489C77.2409 158.931 77.7285 159.152 78.3301 159.152C78.8132 159.152 79.2165 159.004 79.54 158.708C79.8636 158.412 80.0687 157.956 80.1553 157.341ZM87.1553 159.104C86.6995 159.492 86.2598 159.765 85.8359 159.925C85.4167 160.084 84.9655 160.164 84.4824 160.164C83.6849 160.164 83.0719 159.97 82.6436 159.583C82.2152 159.191 82.001 158.692 82.001 158.086C82.001 157.73 82.0807 157.407 82.2402 157.115C82.4043 156.819 82.6162 156.582 82.876 156.404C83.1403 156.227 83.4365 156.092 83.7646 156.001C84.0062 155.937 84.3708 155.876 84.8584 155.816C85.8519 155.698 86.5833 155.557 87.0527 155.393C87.0573 155.224 87.0596 155.117 87.0596 155.071C87.0596 154.57 86.9434 154.217 86.7109 154.012C86.3965 153.734 85.9294 153.595 85.3096 153.595C84.7308 153.595 84.3024 153.697 84.0244 153.902C83.751 154.103 83.5482 154.461 83.416 154.976L82.2129 154.812C82.3223 154.297 82.5023 153.882 82.7529 153.567C83.0036 153.248 83.3659 153.005 83.8398 152.836C84.3138 152.663 84.863 152.576 85.4873 152.576C86.1071 152.576 86.6107 152.649 86.998 152.795C87.3854 152.941 87.6702 153.125 87.8525 153.349C88.0348 153.567 88.1624 153.845 88.2354 154.183C88.2764 154.392 88.2969 154.771 88.2969 155.317V156.958C88.2969 158.102 88.3219 158.826 88.3721 159.132C88.4268 159.433 88.5316 159.722 88.6865 160H87.4014C87.2738 159.745 87.1917 159.446 87.1553 159.104ZM87.0527 156.356C86.6061 156.539 85.9362 156.694 85.043 156.821C84.5371 156.894 84.1794 156.976 83.9697 157.067C83.7601 157.159 83.5983 157.293 83.4844 157.471C83.3704 157.644 83.3135 157.838 83.3135 158.052C83.3135 158.38 83.4365 158.653 83.6826 158.872C83.9333 159.091 84.2979 159.2 84.7764 159.2C85.2503 159.2 85.6719 159.098 86.041 158.893C86.4102 158.683 86.6813 158.398 86.8545 158.038C86.9867 157.76 87.0527 157.35 87.0527 156.808V156.356ZM89.9854 160.602L91.1816 160.779C91.2318 161.148 91.3708 161.417 91.5986 161.586C91.904 161.814 92.321 161.928 92.8496 161.928C93.4193 161.928 93.859 161.814 94.1689 161.586C94.4788 161.358 94.6885 161.039 94.7979 160.629C94.8617 160.378 94.8913 159.852 94.8867 159.05C94.349 159.683 93.679 160 92.877 160C91.8789 160 91.1064 159.64 90.5596 158.92C90.0127 158.2 89.7393 157.336 89.7393 156.329C89.7393 155.636 89.8646 154.998 90.1152 154.415C90.3659 153.827 90.7282 153.374 91.2021 153.055C91.6807 152.736 92.2412 152.576 92.8838 152.576C93.7406 152.576 94.4469 152.923 95.0029 153.615V152.74H96.1377V159.016C96.1377 160.146 96.0215 160.946 95.7891 161.415C95.5612 161.889 95.1966 162.263 94.6953 162.536C94.1986 162.81 93.5856 162.946 92.8564 162.946C91.9906 162.946 91.291 162.75 90.7578 162.358C90.2246 161.971 89.9671 161.385 89.9854 160.602ZM91.0039 156.24C91.0039 157.193 91.193 157.888 91.5713 158.325C91.9495 158.763 92.4235 158.981 92.9932 158.981C93.5583 158.981 94.0322 158.765 94.415 158.332C94.7979 157.895 94.9893 157.211 94.9893 156.281C94.9893 155.393 94.791 154.723 94.3945 154.271C94.0026 153.82 93.5286 153.595 92.9727 153.595C92.4258 153.595 91.9609 153.818 91.5781 154.265C91.1953 154.707 91.0039 155.365 91.0039 156.24ZM97.5459 156.37C97.5459 155.026 97.9196 154.03 98.667 153.383C99.2913 152.845 100.052 152.576 100.95 152.576C101.948 152.576 102.764 152.904 103.397 153.561C104.031 154.212 104.348 155.115 104.348 156.268C104.348 157.202 104.206 157.938 103.924 158.476C103.646 159.009 103.238 159.424 102.7 159.72C102.167 160.016 101.584 160.164 100.95 160.164C99.9339 160.164 99.1113 159.838 98.4824 159.187C97.8581 158.535 97.5459 157.596 97.5459 156.37ZM98.8105 156.37C98.8105 157.3 99.0133 157.997 99.4189 158.462C99.8245 158.922 100.335 159.152 100.95 159.152C101.561 159.152 102.069 158.92 102.475 158.455C102.88 157.99 103.083 157.282 103.083 156.329C103.083 155.431 102.878 154.752 102.468 154.292C102.062 153.827 101.556 153.595 100.95 153.595C100.335 153.595 99.8245 153.825 99.4189 154.285C99.0133 154.745 98.8105 155.44 98.8105 156.37ZM106.118 160V158.599H107.52V160C107.52 160.515 107.428 160.93 107.246 161.244C107.064 161.563 106.774 161.809 106.378 161.982L106.036 161.456C106.296 161.342 106.487 161.174 106.61 160.95C106.733 160.731 106.802 160.415 106.815 160H106.118ZM113.973 160V149.979H115.299V160H113.973ZM117.589 160V149.979H118.915V158.817H123.851V160H117.589ZM134.699 152.433L133.476 152.528C133.366 152.045 133.211 151.694 133.011 151.476C132.678 151.125 132.268 150.949 131.78 150.949C131.388 150.949 131.044 151.059 130.748 151.277C130.361 151.56 130.055 151.972 129.832 152.515C129.609 153.057 129.493 153.829 129.483 154.832C129.78 154.381 130.142 154.046 130.57 153.827C130.999 153.608 131.448 153.499 131.917 153.499C132.737 153.499 133.435 153.802 134.009 154.408C134.588 155.01 134.877 155.789 134.877 156.746C134.877 157.375 134.74 157.961 134.467 158.503C134.198 159.041 133.826 159.453 133.353 159.74C132.879 160.027 132.341 160.171 131.739 160.171C130.714 160.171 129.878 159.795 129.23 159.043C128.583 158.286 128.26 157.042 128.26 155.311C128.26 153.374 128.618 151.965 129.333 151.086C129.957 150.32 130.798 149.938 131.855 149.938C132.644 149.938 133.289 150.159 133.79 150.601C134.296 151.043 134.599 151.653 134.699 152.433ZM129.675 156.753C129.675 157.177 129.764 157.582 129.941 157.97C130.124 158.357 130.377 158.653 130.7 158.858C131.024 159.059 131.363 159.159 131.719 159.159C132.238 159.159 132.685 158.95 133.059 158.53C133.432 158.111 133.619 157.541 133.619 156.821C133.619 156.129 133.435 155.584 133.065 155.188C132.696 154.786 132.231 154.586 131.671 154.586C131.115 154.586 130.643 154.786 130.256 155.188C129.868 155.584 129.675 156.106 129.675 156.753ZM136.107 155.058C136.107 153.873 136.228 152.92 136.47 152.2C136.716 151.476 137.078 150.917 137.557 150.525C138.04 150.133 138.646 149.938 139.375 149.938C139.913 149.938 140.384 150.047 140.79 150.266C141.196 150.48 141.531 150.792 141.795 151.202C142.059 151.608 142.267 152.104 142.417 152.692C142.567 153.276 142.643 154.064 142.643 155.058C142.643 156.233 142.522 157.184 142.28 157.908C142.039 158.628 141.676 159.187 141.193 159.583C140.715 159.975 140.109 160.171 139.375 160.171C138.409 160.171 137.65 159.825 137.099 159.132C136.438 158.298 136.107 156.94 136.107 155.058ZM137.372 155.058C137.372 156.703 137.563 157.799 137.946 158.346C138.334 158.888 138.81 159.159 139.375 159.159C139.94 159.159 140.414 158.886 140.797 158.339C141.184 157.792 141.378 156.698 141.378 155.058C141.378 153.408 141.184 152.312 140.797 151.77C140.414 151.227 139.936 150.956 139.361 150.956C138.796 150.956 138.345 151.195 138.008 151.674C137.584 152.285 137.372 153.412 137.372 155.058ZM150.285 152.433L149.062 152.528C148.952 152.045 148.797 151.694 148.597 151.476C148.264 151.125 147.854 150.949 147.366 150.949C146.974 150.949 146.63 151.059 146.334 151.277C145.947 151.56 145.641 151.972 145.418 152.515C145.195 153.057 145.078 153.829 145.069 154.832C145.366 154.381 145.728 154.046 146.156 153.827C146.585 153.608 147.034 153.499 147.503 153.499C148.323 153.499 149.021 153.802 149.595 154.408C150.174 155.01 150.463 155.789 150.463 156.746C150.463 157.375 150.326 157.961 150.053 158.503C149.784 159.041 149.412 159.453 148.938 159.74C148.465 160.027 147.927 160.171 147.325 160.171C146.3 160.171 145.464 159.795 144.816 159.043C144.169 158.286 143.846 157.042 143.846 155.311C143.846 153.374 144.203 151.965 144.919 151.086C145.543 150.32 146.384 149.938 147.441 149.938C148.23 149.938 148.875 150.159 149.376 150.601C149.882 151.043 150.185 151.653 150.285 152.433ZM145.261 156.753C145.261 157.177 145.35 157.582 145.527 157.97C145.71 158.357 145.963 158.653 146.286 158.858C146.61 159.059 146.949 159.159 147.305 159.159C147.824 159.159 148.271 158.95 148.645 158.53C149.018 158.111 149.205 157.541 149.205 156.821C149.205 156.129 149.021 155.584 148.651 155.188C148.282 154.786 147.817 154.586 147.257 154.586C146.701 154.586 146.229 154.786 145.842 155.188C145.454 155.584 145.261 156.106 145.261 156.753ZM151.693 155.058C151.693 153.873 151.814 152.92 152.056 152.2C152.302 151.476 152.664 150.917 153.143 150.525C153.626 150.133 154.232 149.938 154.961 149.938C155.499 149.938 155.97 150.047 156.376 150.266C156.782 150.48 157.117 150.792 157.381 151.202C157.645 151.608 157.853 152.104 158.003 152.692C158.153 153.276 158.229 154.064 158.229 155.058C158.229 156.233 158.108 157.184 157.866 157.908C157.625 158.628 157.262 159.187 156.779 159.583C156.301 159.975 155.695 160.171 154.961 160.171C153.995 160.171 153.236 159.825 152.685 159.132C152.024 158.298 151.693 156.94 151.693 155.058ZM152.958 155.058C152.958 156.703 153.149 157.799 153.532 158.346C153.92 158.888 154.396 159.159 154.961 159.159C155.526 159.159 156 158.886 156.383 158.339C156.77 157.792 156.964 156.698 156.964 155.058C156.964 153.408 156.77 152.312 156.383 151.77C156 151.227 155.521 150.956 154.947 150.956C154.382 150.956 153.931 151.195 153.594 151.674C153.17 152.285 152.958 153.412 152.958 155.058ZM161.38 154.565C160.869 154.379 160.491 154.112 160.245 153.766C159.999 153.419 159.876 153.005 159.876 152.521C159.876 151.792 160.138 151.179 160.662 150.683C161.186 150.186 161.883 149.938 162.754 149.938C163.629 149.938 164.333 150.193 164.866 150.703C165.399 151.209 165.666 151.826 165.666 152.556C165.666 153.021 165.543 153.426 165.297 153.772C165.055 154.114 164.686 154.379 164.189 154.565C164.805 154.766 165.272 155.09 165.591 155.536C165.914 155.983 166.076 156.516 166.076 157.136C166.076 157.993 165.773 158.713 165.167 159.296C164.561 159.879 163.763 160.171 162.774 160.171C161.785 160.171 160.988 159.879 160.382 159.296C159.776 158.708 159.473 157.977 159.473 157.102C159.473 156.45 159.637 155.905 159.965 155.468C160.298 155.026 160.769 154.725 161.38 154.565ZM161.134 152.48C161.134 152.954 161.286 153.342 161.592 153.643C161.897 153.943 162.294 154.094 162.781 154.094C163.255 154.094 163.643 153.946 163.943 153.649C164.249 153.349 164.401 152.982 164.401 152.549C164.401 152.098 164.244 151.719 163.93 151.414C163.62 151.104 163.232 150.949 162.768 150.949C162.298 150.949 161.909 151.1 161.599 151.4C161.289 151.701 161.134 152.061 161.134 152.48ZM160.737 157.108C160.737 157.459 160.819 157.799 160.983 158.127C161.152 158.455 161.4 158.71 161.729 158.893C162.057 159.07 162.41 159.159 162.788 159.159C163.376 159.159 163.861 158.97 164.244 158.592C164.627 158.214 164.818 157.733 164.818 157.149C164.818 156.557 164.62 156.067 164.224 155.68C163.832 155.292 163.34 155.099 162.747 155.099C162.168 155.099 161.688 155.29 161.305 155.673C160.926 156.056 160.737 156.534 160.737 157.108ZM167.143 156.992V155.755H170.923V156.992H167.143ZM178.408 158.817V160H171.784C171.775 159.704 171.823 159.419 171.928 159.146C172.096 158.694 172.365 158.25 172.734 157.812C173.108 157.375 173.646 156.869 174.348 156.295C175.437 155.402 176.173 154.695 176.556 154.176C176.938 153.652 177.13 153.157 177.13 152.692C177.13 152.205 176.954 151.795 176.604 151.462C176.257 151.125 175.804 150.956 175.243 150.956C174.651 150.956 174.177 151.134 173.821 151.489C173.466 151.845 173.286 152.337 173.281 152.966L172.017 152.836C172.103 151.893 172.429 151.175 172.994 150.683C173.559 150.186 174.318 149.938 175.271 149.938C176.232 149.938 176.993 150.204 177.554 150.737C178.114 151.271 178.395 151.931 178.395 152.72C178.395 153.121 178.312 153.515 178.148 153.902C177.984 154.29 177.711 154.698 177.328 155.126C176.95 155.554 176.319 156.142 175.435 156.89C174.696 157.509 174.222 157.931 174.013 158.154C173.803 158.373 173.63 158.594 173.493 158.817H178.408ZM179.734 155.058C179.734 153.873 179.855 152.92 180.097 152.2C180.343 151.476 180.705 150.917 181.184 150.525C181.667 150.133 182.273 149.938 183.002 149.938C183.54 149.938 184.011 150.047 184.417 150.266C184.823 150.48 185.158 150.792 185.422 151.202C185.686 151.608 185.894 152.104 186.044 152.692C186.194 153.276 186.27 154.064 186.27 155.058C186.27 156.233 186.149 157.184 185.907 157.908C185.666 158.628 185.303 159.187 184.82 159.583C184.342 159.975 183.736 160.171 183.002 160.171C182.036 160.171 181.277 159.825 180.726 159.132C180.065 158.298 179.734 156.94 179.734 155.058ZM180.999 155.058C180.999 156.703 181.19 157.799 181.573 158.346C181.961 158.888 182.437 159.159 183.002 159.159C183.567 159.159 184.041 158.886 184.424 158.339C184.811 157.792 185.005 156.698 185.005 155.058C185.005 153.408 184.811 152.312 184.424 151.77C184.041 151.227 183.562 150.956 182.988 150.956C182.423 150.956 181.972 151.195 181.635 151.674C181.211 152.285 180.999 153.412 180.999 155.058ZM192.162 160H190.932V152.159C190.635 152.442 190.246 152.724 189.763 153.007C189.284 153.289 188.854 153.501 188.471 153.643V152.453C189.159 152.13 189.76 151.738 190.275 151.277C190.79 150.817 191.155 150.37 191.369 149.938H192.162V160ZM195.327 157.354L196.558 157.19C196.699 157.888 196.938 158.391 197.275 158.701C197.617 159.007 198.032 159.159 198.52 159.159C199.098 159.159 199.586 158.959 199.982 158.558C200.383 158.157 200.584 157.66 200.584 157.067C200.584 156.502 200.399 156.037 200.03 155.673C199.661 155.304 199.192 155.119 198.622 155.119C198.39 155.119 198.1 155.165 197.754 155.256L197.891 154.176C197.973 154.185 198.039 154.189 198.089 154.189C198.613 154.189 199.085 154.053 199.504 153.779C199.923 153.506 200.133 153.084 200.133 152.515C200.133 152.063 199.98 151.69 199.675 151.394C199.369 151.097 198.975 150.949 198.492 150.949C198.014 150.949 197.615 151.1 197.296 151.4C196.977 151.701 196.772 152.152 196.681 152.754L195.45 152.535C195.601 151.71 195.942 151.072 196.476 150.621C197.009 150.165 197.672 149.938 198.465 149.938C199.012 149.938 199.515 150.056 199.976 150.293C200.436 150.525 200.787 150.844 201.028 151.25C201.274 151.656 201.397 152.086 201.397 152.542C201.397 152.975 201.281 153.369 201.049 153.725C200.816 154.08 200.472 154.363 200.017 154.572C200.609 154.709 201.069 154.994 201.397 155.427C201.726 155.855 201.89 156.393 201.89 157.04C201.89 157.915 201.571 158.658 200.933 159.269C200.295 159.875 199.488 160.178 198.513 160.178C197.633 160.178 196.902 159.916 196.318 159.392C195.74 158.868 195.409 158.188 195.327 157.354Z" fill="#4D4D4D"/>
</svg>
