<svg width="197" height="10" viewBox="0 0 197 10" fill="none" xmlns="http://www.w3.org/2000/svg">
<path d="M4.97283 5.93692H1.40615V9.6904H0.285357V1.19107H5.55074V2.11339H1.40615V5.02044H4.97283V5.93692ZM7.89739 9.6904H6.81747V3.37428H7.89739V9.6904ZM6.7299 1.69893C6.7299 1.5238 6.78244 1.37592 6.88751 1.25528C6.99648 1.13464 7.15604 1.07432 7.36619 1.07432C7.57633 1.07432 7.73589 1.13464 7.84486 1.25528C7.95382 1.37592 8.00831 1.5238 8.00831 1.69893C8.00831 1.87405 7.95382 2.01999 7.84486 2.13674C7.73589 2.25349 7.57633 2.31186 7.36619 2.31186C7.15604 2.31186 6.99648 2.25349 6.88751 2.13674C6.78244 2.01999 6.7299 1.87405 6.7299 1.69893ZM10.6527 3.37428L10.6877 4.16817C11.1703 3.56108 11.8007 3.25753 12.579 3.25753C13.9139 3.25753 14.5871 4.01056 14.5988 5.51662V9.6904H13.5189V5.51078C13.515 5.05546 13.4099 4.71884 13.2036 4.50091C13.0013 4.28297 12.6841 4.17401 12.2521 4.17401C11.9019 4.17401 11.5944 4.26741 11.3298 4.45421C11.0652 4.641 10.8589 4.88618 10.711 5.18972V9.6904H9.63112V3.37428H10.6527ZM15.9648 6.4798C15.9648 5.51078 16.1944 4.73246 16.6536 4.14482C17.1128 3.55329 17.714 3.25753 18.4573 3.25753C19.1968 3.25753 19.7824 3.51048 20.2144 4.0164V0.724074H21.2943V9.6904H20.302L20.2494 9.01325C19.8175 9.54252 19.2162 9.80715 18.4457 9.80715C17.714 9.80715 17.1167 9.50749 16.6536 8.90818C16.1944 8.30887 15.9648 7.52665 15.9648 6.56153V6.4798ZM17.0447 6.60239C17.0447 7.31845 17.1926 7.87884 17.4883 8.28357C17.7841 8.6883 18.1927 8.89067 18.7142 8.89067C19.3991 8.89067 19.8992 8.58323 20.2144 7.96835V5.06714C19.8914 4.47172 19.3952 4.17401 18.7259 4.17401C18.1966 4.17401 17.7841 4.37832 17.4883 4.78694C17.1926 5.19556 17.0447 5.80071 17.0447 6.60239ZM27.4062 1.84486V3.37428H28.5853V4.20903H27.4062V8.12596C27.4062 8.37892 27.4587 8.56961 27.5638 8.69803C27.6688 8.82256 27.8479 8.88483 28.1008 8.88483C28.2253 8.88483 28.3966 8.86148 28.6145 8.81478V9.6904C28.3304 9.76823 28.0541 9.80715 27.7856 9.80715C27.303 9.80715 26.9392 9.66121 26.694 9.36934C26.4488 9.07747 26.3262 8.66301 26.3262 8.12596V4.20903H25.1762V3.37428H26.3262V1.84486H27.4062ZM30.932 4.13898C31.4106 3.55135 32.0333 3.25753 32.8 3.25753C34.1348 3.25753 34.808 4.01056 34.8197 5.51662V9.6904H33.7398V5.51078C33.7359 5.05546 33.6308 4.71884 33.4246 4.50091C33.2222 4.28297 32.905 4.17401 32.4731 4.17401C32.1228 4.17401 31.8154 4.26741 31.5507 4.45421C31.2861 4.641 31.0799 4.88618 30.932 5.18972V9.6904H29.852V0.724074H30.932V4.13898ZM39.0577 9.80715C38.2015 9.80715 37.5049 9.52695 36.9679 8.96656C36.4309 8.40227 36.1623 7.64924 36.1623 6.70746V6.50899C36.1623 5.88244 36.281 5.32399 36.5184 4.83364C36.7597 4.3394 37.0944 3.95413 37.5225 3.67782C37.9544 3.39763 38.4214 3.25753 38.9234 3.25753C39.7446 3.25753 40.3828 3.528 40.8381 4.06893C41.2935 4.60987 41.5211 5.38431 41.5211 6.39224V6.84172H37.2423C37.2578 7.46438 37.4388 7.96835 37.7851 8.35362C38.1354 8.735 38.579 8.92569 39.1161 8.92569C39.4975 8.92569 39.8205 8.84786 40.0851 8.6922C40.3497 8.53653 40.5813 8.33027 40.7798 8.07343L41.4394 8.58712C40.9101 9.40047 40.1162 9.80715 39.0577 9.80715ZM38.9234 4.14482C38.4876 4.14482 38.1218 4.30438 37.826 4.62349C37.5302 4.93871 37.3473 5.38236 37.2773 5.95443H40.4412V5.87271C40.4101 5.32399 40.2622 4.8998 39.9975 4.60014C39.7329 4.29659 39.3749 4.14482 38.9234 4.14482ZM51.0887 6.60239C51.0887 7.56751 50.8669 8.34389 50.4232 8.93153C49.9796 9.51528 49.3842 9.80715 48.637 9.80715C47.8392 9.80715 47.2224 9.525 46.7865 8.96072L46.734 9.6904H45.7416V0.724074H46.8215V4.06893C47.2574 3.528 47.8586 3.25753 48.6253 3.25753C49.3919 3.25753 49.9932 3.54745 50.4291 4.12731C50.8688 4.70716 51.0887 5.50106 51.0887 6.50899V6.60239ZM50.0088 6.4798C50.0088 5.74428 49.8667 5.1761 49.5826 4.77527C49.2985 4.37443 48.8899 4.17401 48.3568 4.17401C47.6446 4.17401 47.1328 4.5048 46.8215 5.16637V7.8983C47.1523 8.55988 47.6679 8.89067 48.3684 8.89067C48.886 8.89067 49.2888 8.69025 49.5768 8.28941C49.8648 7.88857 50.0088 7.28537 50.0088 6.4798ZM55.0757 9.80715C54.2195 9.80715 53.5229 9.52695 52.9859 8.96656C52.4488 8.40227 52.1803 7.64924 52.1803 6.70746V6.50899C52.1803 5.88244 52.299 5.32399 52.5364 4.83364C52.7777 4.3394 53.1123 3.95413 53.5404 3.67782C53.9724 3.39763 54.4394 3.25753 54.9414 3.25753C55.7625 3.25753 56.4008 3.528 56.8561 4.06893C57.3114 4.60987 57.5391 5.38431 57.5391 6.39224V6.84172H53.2602C53.2758 7.46438 53.4568 7.96835 53.8031 8.35362C54.1534 8.735 54.597 8.92569 55.134 8.92569C55.5154 8.92569 55.8384 8.84786 56.1031 8.6922C56.3677 8.53653 56.5992 8.33027 56.7977 8.07343L57.4574 8.58712C56.9281 9.40047 56.1342 9.80715 55.0757 9.80715ZM54.9414 4.14482C54.5055 4.14482 54.1397 4.30438 53.844 4.62349C53.5482 4.93871 53.3653 5.38236 53.2952 5.95443H56.4591V5.87271C56.428 5.32399 56.2801 4.8998 56.0155 4.60014C55.7509 4.29659 55.3928 4.14482 54.9414 4.14482ZM62.4717 8.01505C62.4717 7.72318 62.3608 7.49746 62.139 7.33791C61.9211 7.17446 61.5377 7.03436 60.989 6.91761C60.4442 6.80086 60.0103 6.66076 59.6873 6.49731C59.3681 6.33386 59.1308 6.13928 58.9751 5.91357C58.8233 5.68785 58.7474 5.41933 58.7474 5.108C58.7474 4.59041 58.9654 4.1526 59.4012 3.79457C59.841 3.43654 60.4014 3.25753 61.0824 3.25753C61.7985 3.25753 62.3783 3.44238 62.822 3.81209C63.2695 4.18179 63.4933 4.65462 63.4933 5.23059H62.4075C62.4075 4.93482 62.281 4.67992 62.0281 4.46588C61.779 4.25184 61.4638 4.14482 61.0824 4.14482C60.6894 4.14482 60.3819 4.23044 60.1601 4.40167C59.9383 4.5729 59.8274 4.79667 59.8274 5.07298C59.8274 5.33371 59.9305 5.53024 60.1367 5.66256C60.343 5.79487 60.7147 5.92135 61.2517 6.04199C61.7926 6.16263 62.2304 6.30662 62.5651 6.47396C62.8998 6.6413 63.1469 6.84367 63.3065 7.08106C63.4699 7.31456 63.5517 7.60059 63.5517 7.93916C63.5517 8.50345 63.3259 8.95683 62.8745 9.29929C62.4231 9.63786 61.8374 9.80715 61.1174 9.80715C60.6115 9.80715 60.164 9.71764 59.7748 9.53863C59.3857 9.35961 59.0802 9.11055 58.8583 8.79143C58.6404 8.46843 58.5314 8.12012 58.5314 7.74653H59.6114C59.6308 8.10845 59.7748 8.39643 60.0433 8.61047C60.3158 8.82062 60.6738 8.92569 61.1174 8.92569C61.5261 8.92569 61.853 8.84397 62.0981 8.68052C62.3472 8.51318 62.4717 8.29136 62.4717 8.01505ZM66.4237 1.84486V3.37428H67.6028V4.20903H66.4237V8.12596C66.4237 8.37892 66.4762 8.56961 66.5813 8.69803C66.6864 8.82256 66.8654 8.88483 67.1183 8.88483C67.2429 8.88483 67.4141 8.86148 67.632 8.81478V9.6904C67.3479 9.76823 67.0716 9.80715 66.8031 9.80715C66.3206 9.80715 65.9567 9.66121 65.7115 9.36934C65.4663 9.07747 65.3438 8.66301 65.3438 8.12596V4.20903H64.1938V3.37428H65.3438V1.84486H66.4237ZM74.3685 8.92569C74.7537 8.92569 75.0903 8.80894 75.3783 8.57545C75.6663 8.34195 75.8259 8.05008 75.857 7.69983H76.8786C76.8591 8.06175 76.7346 8.40616 76.505 8.73306C76.2754 9.05995 75.9679 9.32069 75.5826 9.51528C75.2013 9.70986 74.7965 9.80715 74.3685 9.80715C73.5084 9.80715 72.8235 9.52111 72.3137 8.94904C71.8078 8.37308 71.5548 7.58697 71.5548 6.59071V6.40975C71.5548 5.79487 71.6677 5.2481 71.8934 4.76943C72.1191 4.29076 72.4421 3.91911 72.8624 3.65447C73.2866 3.38984 73.7867 3.25753 74.3626 3.25753C75.0709 3.25753 75.6585 3.46962 76.1255 3.89381C76.5964 4.318 76.8474 4.86866 76.8786 5.54581H75.857C75.8259 5.13719 75.6702 4.80251 75.39 4.54177C75.1137 4.27714 74.7712 4.14482 74.3626 4.14482C73.8139 4.14482 73.3878 4.34329 73.0842 4.74024C72.7846 5.1333 72.6347 5.70342 72.6347 6.45061V6.65492C72.6347 7.38266 72.7846 7.94306 73.0842 8.33611C73.3839 8.72917 73.8119 8.92569 74.3685 8.92569ZM81.1457 4.34329C80.9823 4.31605 80.8052 4.30243 80.6145 4.30243C79.9062 4.30243 79.4256 4.60403 79.1727 5.20724V9.6904H78.0927V3.37428H79.1435L79.161 4.10396C79.5151 3.53967 80.0172 3.25753 80.6671 3.25753C80.8772 3.25753 81.0368 3.28477 81.1457 3.33925V4.34329ZM84.6482 9.80715C83.792 9.80715 83.0954 9.52695 82.5584 8.96656C82.0214 8.40227 81.7528 7.64924 81.7528 6.70746V6.50899C81.7528 5.88244 81.8715 5.32399 82.1089 4.83364C82.3502 4.3394 82.6849 3.95413 83.113 3.67782C83.5449 3.39763 84.0119 3.25753 84.5139 3.25753C85.3351 3.25753 85.9733 3.528 86.4286 4.06893C86.8839 4.60987 87.1116 5.38431 87.1116 6.39224V6.84172H82.8328C82.8483 7.46438 83.0293 7.96835 83.3756 8.35362C83.7259 8.735 84.1695 8.92569 84.7066 8.92569C85.088 8.92569 85.411 8.84786 85.6756 8.6922C85.9402 8.53653 86.1718 8.33027 86.3703 8.07343L87.0299 8.58712C86.5006 9.40047 85.7067 9.80715 84.6482 9.80715ZM84.5139 4.14482C84.0781 4.14482 83.7123 4.30438 83.4165 4.62349C83.1207 4.93871 82.9378 5.38236 82.8678 5.95443H86.0317V5.87271C86.0005 5.32399 85.8527 4.8998 85.588 4.60014C85.3234 4.29659 84.9654 4.14482 84.5139 4.14482ZM88.104 6.4798C88.104 5.51078 88.3336 4.73246 88.7928 4.14482C89.252 3.55329 89.8533 3.25753 90.5966 3.25753C91.336 3.25753 91.9217 3.51048 92.3536 4.0164V0.724074H93.4336V9.6904H92.4412L92.3887 9.01325C91.9567 9.54252 91.3554 9.80715 90.5849 9.80715C89.8533 9.80715 89.2559 9.50749 88.7928 8.90818C88.3336 8.30887 88.104 7.52665 88.104 6.56153V6.4798ZM89.1839 6.60239C89.1839 7.31845 89.3318 7.87884 89.6275 8.28357C89.9233 8.6883 90.3319 8.89067 90.8534 8.89067C91.5383 8.89067 92.0384 8.58323 92.3536 7.96835V5.06714C92.0306 4.47172 91.5344 4.17401 90.8651 4.17401C90.3358 4.17401 89.9233 4.37832 89.6275 4.78694C89.3318 5.19556 89.1839 5.80071 89.1839 6.60239ZM96.2881 9.6904H95.2082V3.37428H96.2881V9.6904ZM95.1206 1.69893C95.1206 1.5238 95.1731 1.37592 95.2782 1.25528C95.3872 1.13464 95.5467 1.07432 95.7569 1.07432C95.967 1.07432 96.1266 1.13464 96.2355 1.25528C96.3445 1.37592 96.399 1.5238 96.399 1.69893C96.399 1.87405 96.3445 2.01999 96.2355 2.13674C96.1266 2.25349 95.967 2.31186 95.7569 2.31186C95.5467 2.31186 95.3872 2.25349 95.2782 2.13674C95.1731 2.01999 95.1206 1.87405 95.1206 1.69893ZM99.487 1.84486V3.37428H100.666V4.20903H99.487V8.12596C99.487 8.37892 99.5395 8.56961 99.6446 8.69803C99.7497 8.82256 99.9287 8.88483 100.182 8.88483C100.306 8.88483 100.477 8.86148 100.695 8.81478V9.6904C100.411 9.76823 100.135 9.80715 99.8664 9.80715C99.3839 9.80715 99.02 9.66121 98.7748 9.36934C98.5297 9.07747 98.4071 8.66301 98.4071 8.12596V4.20903H97.2571V3.37428H98.4071V1.84486H99.487ZM107.432 8.92569C107.817 8.92569 108.154 8.80894 108.442 8.57545C108.73 8.34195 108.889 8.05008 108.92 7.69983H109.942C109.922 8.06175 109.798 8.40616 109.568 8.73306C109.339 9.05995 109.031 9.32069 108.646 9.51528C108.265 9.70986 107.86 9.80715 107.432 9.80715C106.572 9.80715 105.887 9.52111 105.377 8.94904C104.871 8.37308 104.618 7.58697 104.618 6.59071V6.40975C104.618 5.79487 104.731 5.2481 104.957 4.76943C105.182 4.29076 105.505 3.91911 105.926 3.65447C106.35 3.38984 106.85 3.25753 107.426 3.25753C108.134 3.25753 108.722 3.46962 109.189 3.89381C109.66 4.318 109.911 4.86866 109.942 5.54581H108.92C108.889 5.13719 108.734 4.80251 108.453 4.54177C108.177 4.27714 107.835 4.14482 107.426 4.14482C106.877 4.14482 106.451 4.34329 106.148 4.74024C105.848 5.1333 105.698 5.70342 105.698 6.45061V6.65492C105.698 7.38266 105.848 7.94306 106.148 8.33611C106.447 8.72917 106.875 8.92569 107.432 8.92569ZM115.055 9.6904C114.993 9.56587 114.943 9.34404 114.904 9.02493C114.402 9.54641 113.802 9.80715 113.106 9.80715C112.483 9.80715 111.971 9.63202 111.571 9.28178C111.174 8.92764 110.975 8.4801 110.975 7.93916C110.975 7.28148 111.224 6.77167 111.722 6.40975C112.224 6.04394 112.929 5.86103 113.835 5.86103H114.886V5.36485C114.886 4.98736 114.773 4.6877 114.548 4.46588C114.322 4.24017 113.989 4.12731 113.549 4.12731C113.164 4.12731 112.841 4.2246 112.58 4.41918C112.32 4.61376 112.189 4.84921 112.189 5.12551H111.104C111.104 4.81029 111.214 4.50674 111.436 4.21487C111.662 3.91911 111.966 3.68561 112.347 3.51438C112.732 3.34314 113.154 3.25753 113.614 3.25753C114.341 3.25753 114.911 3.44043 115.324 3.80625C115.737 4.16817 115.951 4.66825 115.966 5.30647V8.21352C115.966 8.79338 116.04 9.25454 116.188 9.597V9.6904H115.055ZM113.263 8.86732C113.602 8.86732 113.923 8.77976 114.227 8.60463C114.53 8.42951 114.75 8.20185 114.886 7.92165V6.62574H114.04C112.717 6.62574 112.055 7.01295 112.055 7.78739C112.055 8.12596 112.168 8.39059 112.394 8.58128C112.619 8.77197 112.909 8.86732 113.263 8.86732ZM120.712 4.34329C120.549 4.31605 120.371 4.30243 120.181 4.30243C119.472 4.30243 118.992 4.60403 118.739 5.20724V9.6904H117.659V3.37428H118.71L118.727 4.10396C119.081 3.53967 119.583 3.25753 120.233 3.25753C120.443 3.25753 120.603 3.28477 120.712 3.33925V4.34329ZM121.331 6.4798C121.331 5.51078 121.56 4.73246 122.02 4.14482C122.479 3.55329 123.08 3.25753 123.823 3.25753C124.563 3.25753 125.148 3.51048 125.58 4.0164V0.724074H126.66V9.6904H125.668L125.615 9.01325C125.183 9.54252 124.582 9.80715 123.812 9.80715C123.08 9.80715 122.483 9.50749 122.02 8.90818C121.56 8.30887 121.331 7.52665 121.331 6.56153V6.4798ZM122.411 6.60239C122.411 7.31845 122.559 7.87884 122.854 8.28357C123.15 8.6883 123.559 8.89067 124.08 8.89067C124.765 8.89067 125.265 8.58323 125.58 7.96835V5.06714C125.257 4.47172 124.761 4.17401 124.092 4.17401C123.563 4.17401 123.15 4.37832 122.854 4.78694C122.559 5.19556 122.411 5.80071 122.411 6.60239ZM131.021 6.47396C131.021 5.85519 131.142 5.29869 131.383 4.80445C131.628 4.31021 131.967 3.92883 132.399 3.66031C132.834 3.39179 133.331 3.25753 133.887 3.25753C134.747 3.25753 135.442 3.55524 135.971 4.15066C136.504 4.74608 136.771 5.53803 136.771 6.5265V6.60239C136.771 7.21727 136.652 7.76988 136.415 8.26022C136.181 8.74668 135.845 9.12611 135.405 9.39853C134.969 9.67094 134.467 9.80715 133.899 9.80715C133.043 9.80715 132.348 9.50944 131.815 8.91402C131.286 8.3186 131.021 7.53054 131.021 6.54985V6.47396ZM132.107 6.60239C132.107 7.30288 132.268 7.86522 132.591 8.28941C132.918 8.7136 133.354 8.92569 133.899 8.92569C134.447 8.92569 134.883 8.71165 135.206 8.28357C135.529 7.8516 135.691 7.2484 135.691 6.47396C135.691 5.78125 135.525 5.22086 135.195 4.79278C134.868 4.36081 134.432 4.14482 133.887 4.14482C133.354 4.14482 132.924 4.35691 132.597 4.7811C132.27 5.20529 132.107 5.81239 132.107 6.60239ZM138.656 9.6904V4.20903H137.658V3.37428H138.656V2.72632C138.656 2.04918 138.837 1.52575 139.199 1.15605C139.561 0.78634 140.073 0.601488 140.734 0.601488C140.983 0.601488 141.231 0.634567 141.476 0.700724L141.417 1.57634C141.235 1.54132 141.04 1.5238 140.834 1.5238C140.483 1.5238 140.213 1.62693 140.022 1.83319C139.832 2.03555 139.736 2.32743 139.736 2.70881V3.37428H141.085V4.20903H139.736V9.6904H138.656ZM142.813 9.6904V4.20903H141.814V3.37428H142.813V2.72632C142.813 2.04918 142.994 1.52575 143.355 1.15605C143.717 0.78634 144.229 0.601488 144.891 0.601488C145.14 0.601488 145.387 0.634567 145.632 0.700724L145.574 1.57634C145.391 1.54132 145.196 1.5238 144.99 1.5238C144.64 1.5238 144.369 1.62693 144.179 1.83319C143.988 2.03555 143.892 2.32743 143.892 2.70881V3.37428H145.241V4.20903H143.892V9.6904H142.813ZM148.919 9.80715C148.062 9.80715 147.366 9.52695 146.829 8.96656C146.292 8.40227 146.023 7.64924 146.023 6.70746V6.50899C146.023 5.88244 146.142 5.32399 146.379 4.83364C146.621 4.3394 146.955 3.95413 147.383 3.67782C147.815 3.39763 148.282 3.25753 148.784 3.25753C149.605 3.25753 150.244 3.528 150.699 4.06893C151.154 4.60987 151.382 5.38431 151.382 6.39224V6.84172H147.103C147.119 7.46438 147.3 7.96835 147.646 8.35362C147.996 8.735 148.44 8.92569 148.977 8.92569C149.358 8.92569 149.681 8.84786 149.946 8.6922C150.211 8.53653 150.442 8.33027 150.641 8.07343L151.3 8.58712C150.771 9.40047 149.977 9.80715 148.919 9.80715ZM148.784 4.14482C148.348 4.14482 147.983 4.30438 147.687 4.62349C147.391 4.93871 147.208 5.38236 147.138 5.95443H150.302V5.87271C150.271 5.32399 150.123 4.8998 149.858 4.60014C149.594 4.29659 149.236 4.14482 148.784 4.14482ZM155.69 4.34329C155.527 4.31605 155.349 4.30243 155.159 4.30243C154.45 4.30243 153.97 4.60403 153.717 5.20724V9.6904H152.637V3.37428H153.688L153.705 4.10396C154.059 3.53967 154.561 3.25753 155.211 3.25753C155.421 3.25753 155.581 3.28477 155.69 3.33925V4.34329ZM160.366 8.01505C160.366 7.72318 160.255 7.49746 160.033 7.33791C159.815 7.17446 159.432 7.03436 158.883 6.91761C158.338 6.80086 157.904 6.66076 157.581 6.49731C157.262 6.33386 157.025 6.13928 156.869 5.91357C156.717 5.68785 156.641 5.41933 156.641 5.108C156.641 4.59041 156.859 4.1526 157.295 3.79457C157.735 3.43654 158.295 3.25753 158.976 3.25753C159.693 3.25753 160.272 3.44238 160.716 3.81209C161.164 4.18179 161.387 4.65462 161.387 5.23059H160.302C160.302 4.93482 160.175 4.67992 159.922 4.46588C159.673 4.25184 159.358 4.14482 158.976 4.14482C158.583 4.14482 158.276 4.23044 158.054 4.40167C157.832 4.5729 157.721 4.79667 157.721 5.07298C157.721 5.33371 157.825 5.53024 158.031 5.66256C158.237 5.79487 158.609 5.92135 159.146 6.04199C159.687 6.16263 160.124 6.30662 160.459 6.47396C160.794 6.6413 161.041 6.84367 161.201 7.08106C161.364 7.31456 161.446 7.60059 161.446 7.93916C161.446 8.50345 161.22 8.95683 160.769 9.29929C160.317 9.63786 159.731 9.80715 159.011 9.80715C158.506 9.80715 158.058 9.71764 157.669 9.53863C157.28 9.35961 156.974 9.11055 156.752 8.79143C156.534 8.46843 156.425 8.12012 156.425 7.74653H157.505C157.525 8.10845 157.669 8.39643 157.937 8.61047C158.21 8.82062 158.568 8.92569 159.011 8.92569C159.42 8.92569 159.747 8.84397 159.992 8.68052C160.241 8.51318 160.366 8.29136 160.366 8.01505ZM165.532 6.47396C165.532 5.85519 165.653 5.29869 165.894 4.80445C166.139 4.31021 166.478 3.92883 166.91 3.66031C167.345 3.39179 167.842 3.25753 168.398 3.25753C169.258 3.25753 169.953 3.55524 170.482 4.15066C171.015 4.74608 171.282 5.53803 171.282 6.5265V6.60239C171.282 7.21727 171.163 7.76988 170.926 8.26022C170.692 8.74668 170.356 9.12611 169.916 9.39853C169.48 9.67094 168.978 9.80715 168.41 9.80715C167.554 9.80715 166.859 9.50944 166.326 8.91402C165.797 8.3186 165.532 7.53054 165.532 6.54985V6.47396ZM166.618 6.60239C166.618 7.30288 166.779 7.86522 167.102 8.28941C167.429 8.7136 167.865 8.92569 168.41 8.92569C168.959 8.92569 169.394 8.71165 169.717 8.28357C170.04 7.8516 170.202 7.2484 170.202 6.47396C170.202 5.78125 170.036 5.22086 169.706 4.79278C169.379 4.36081 168.943 4.14482 168.398 4.14482C167.865 4.14482 167.435 4.35691 167.108 4.7811C166.781 5.20529 166.618 5.81239 166.618 6.60239ZM173.658 3.37428L173.693 4.16817C174.175 3.56108 174.806 3.25753 175.584 3.25753C176.919 3.25753 177.592 4.01056 177.604 5.51662V9.6904H176.524V5.51078C176.52 5.05546 176.415 4.71884 176.209 4.50091C176.006 4.28297 175.689 4.17401 175.257 4.17401C174.907 4.17401 174.599 4.26741 174.335 4.45421C174.07 4.641 173.864 4.88618 173.716 5.18972V9.6904H172.636V3.37428H173.658ZM180.406 9.6904H179.326V0.724074H180.406V9.6904ZM183.313 9.6904H182.233V3.37428H183.313V9.6904ZM182.145 1.69893C182.145 1.5238 182.198 1.37592 182.303 1.25528C182.412 1.13464 182.571 1.07432 182.782 1.07432C182.992 1.07432 183.151 1.13464 183.26 1.25528C183.369 1.37592 183.424 1.5238 183.424 1.69893C183.424 1.87405 183.369 2.01999 183.26 2.13674C183.151 2.25349 182.992 2.31186 182.782 2.31186C182.571 2.31186 182.412 2.25349 182.303 2.13674C182.198 2.01999 182.145 1.87405 182.145 1.69893ZM186.068 3.37428L186.103 4.16817C186.586 3.56108 187.216 3.25753 187.994 3.25753C189.329 3.25753 190.003 4.01056 190.014 5.51662V9.6904H188.934V5.51078C188.93 5.05546 188.825 4.71884 188.619 4.50091C188.417 4.28297 188.1 4.17401 187.668 4.17401C187.317 4.17401 187.01 4.26741 186.745 4.45421C186.481 4.641 186.274 4.88618 186.126 5.18972V9.6904H185.047V3.37428H186.068ZM194.264 9.80715C193.408 9.80715 192.711 9.52695 192.174 8.96656C191.637 8.40227 191.368 7.64924 191.368 6.70746V6.50899C191.368 5.88244 191.487 5.32399 191.725 4.83364C191.966 4.3394 192.301 3.95413 192.729 3.67782C193.161 3.39763 193.628 3.25753 194.13 3.25753C194.951 3.25753 195.589 3.528 196.044 4.06893C196.5 4.60987 196.727 5.38431 196.727 6.39224V6.84172H192.448C192.464 7.46438 192.645 7.96835 192.991 8.35362C193.342 8.735 193.785 8.92569 194.322 8.92569C194.704 8.92569 195.027 8.84786 195.291 8.6922C195.556 8.53653 195.787 8.33027 195.986 8.07343L196.646 8.58712C196.116 9.40047 195.322 9.80715 194.264 9.80715ZM194.13 4.14482C193.694 4.14482 193.328 4.30438 193.032 4.62349C192.736 4.93871 192.553 5.38236 192.483 5.95443H195.647V5.87271C195.616 5.32399 195.468 4.8998 195.204 4.60014C194.939 4.29659 194.581 4.14482 194.13 4.14482Z" fill="#009EE8"/>
</svg>
